<?xml version="1.0" encoding="utf-8" standalone="no"?>
<!DOCTYPE svg PUBLIC "-//W3C//DTD SVG 1.1//EN"
  "http://www.w3.org/Graphics/SVG/1.1/DTD/svg11.dtd">
<!-- Created with matplotlib (https://matplotlib.org/) -->
<svg height="277.314375pt" version="1.1" viewBox="0 0 397.660937 277.314375" width="397.660937pt" xmlns="http://www.w3.org/2000/svg" xmlns:xlink="http://www.w3.org/1999/xlink">
 <defs>
  <style type="text/css">
*{stroke-linecap:butt;stroke-linejoin:round;}
  </style>
 </defs>
 <g id="figure_1">
  <g id="patch_1">
   <path d="M 0 277.314375 
L 397.660937 277.314375 
L 397.660937 0 
L 0 0 
z
" style="fill:#ffffff;"/>
  </g>
  <g id="axes_1">
   <g id="patch_2">
    <path d="M 52.160938 239.758125 
L 386.960938 239.758125 
L 386.960938 22.318125 
L 52.160938 22.318125 
z
" style="fill:#ffffff;"/>
   </g>
   <g id="PathCollection_1">
    <defs>
     <path d="M 0 2.738613 
C 0.726289 2.738613 1.422928 2.450055 1.936492 1.936492 
C 2.450055 1.422928 2.738613 0.726289 2.738613 0 
C 2.738613 -0.726289 2.450055 -1.422928 1.936492 -1.936492 
C 1.422928 -2.450055 0.726289 -2.738613 0 -2.738613 
C -0.726289 -2.738613 -1.422928 -2.450055 -1.936492 -1.936492 
C -2.450055 -1.422928 -2.738613 -0.726289 -2.738613 0 
C -2.738613 0.726289 -2.450055 1.422928 -1.936492 1.936492 
C -1.422928 2.450055 -0.726289 2.738613 0 2.738613 
z
" id="mb1a2b3e165" style="stroke:#1f77b4;"/>
    </defs>
    <g clip-path="url(#p00eeb17d6d)">
     <use style="fill:#1f77b4;stroke:#1f77b4;" x="134.526006" xlink:href="#mb1a2b3e165" y="74.015449"/>
     <use style="fill:#1f77b4;stroke:#1f77b4;" x="94.110153" xlink:href="#mb1a2b3e165" y="76.571313"/>
     <use style="fill:#1f77b4;stroke:#1f77b4;" x="156.338609" xlink:href="#mb1a2b3e165" y="78.922769"/>
     <use style="fill:#1f77b4;stroke:#1f77b4;" x="146.978931" xlink:href="#mb1a2b3e165" y="57.588717"/>
     <use style="fill:#1f77b4;stroke:#1f77b4;" x="104.903709" xlink:href="#mb1a2b3e165" y="67.692437"/>
     <use style="fill:#1f77b4;stroke:#1f77b4;" x="164.860838" xlink:href="#mb1a2b3e165" y="66.378129"/>
     <use style="fill:#1f77b4;stroke:#1f77b4;" x="156.543676" xlink:href="#mb1a2b3e165" y="78.376889"/>
     <use style="fill:#1f77b4;stroke:#1f77b4;" x="99.885684" xlink:href="#mb1a2b3e165" y="71.644574"/>
     <use style="fill:#1f77b4;stroke:#1f77b4;" x="122.574823" xlink:href="#mb1a2b3e165" y="81.017463"/>
     <use style="fill:#1f77b4;stroke:#1f77b4;" x="99.607309" xlink:href="#mb1a2b3e165" y="84.376857"/>
     <use style="fill:#1f77b4;stroke:#1f77b4;" x="130.116912" xlink:href="#mb1a2b3e165" y="70.466248"/>
     <use style="fill:#1f77b4;stroke:#1f77b4;" x="137.887274" xlink:href="#mb1a2b3e165" y="90.67402"/>
     <use style="fill:#1f77b4;stroke:#1f77b4;" x="103.230916" xlink:href="#mb1a2b3e165" y="67.250523"/>
     <use style="fill:#1f77b4;stroke:#1f77b4;" x="100.632142" xlink:href="#mb1a2b3e165" y="90.144566"/>
     <use style="fill:#1f77b4;stroke:#1f77b4;" x="69.720263" xlink:href="#mb1a2b3e165" y="92.95522"/>
     <use style="fill:#1f77b4;stroke:#1f77b4;" x="78.977236" xlink:href="#mb1a2b3e165" y="86.976893"/>
     <use style="fill:#1f77b4;stroke:#1f77b4;" x="90.463286" xlink:href="#mb1a2b3e165" y="78.967662"/>
     <use style="fill:#1f77b4;stroke:#1f77b4;" x="115.852876" xlink:href="#mb1a2b3e165" y="81.465036"/>
     <use style="fill:#1f77b4;stroke:#1f77b4;" x="111.521388" xlink:href="#mb1a2b3e165" y="64.819155"/>
    </g>
   </g>
   <g id="PathCollection_2">
    <defs>
     <path d="M 0 2.738613 
C 0.726289 2.738613 1.422928 2.450055 1.936492 1.936492 
C 2.450055 1.422928 2.738613 0.726289 2.738613 0 
C 2.738613 -0.726289 2.450055 -1.422928 1.936492 -1.936492 
C 1.422928 -2.450055 0.726289 -2.738613 0 -2.738613 
C -0.726289 -2.738613 -1.422928 -2.450055 -1.936492 -1.936492 
C -2.450055 -1.422928 -2.738613 -0.726289 -2.738613 0 
C -2.738613 0.726289 -2.450055 1.422928 -1.936492 1.936492 
C -1.422928 2.450055 -0.726289 2.738613 0 2.738613 
z
" id="m4fef95fbae" style="stroke:#ff7f0e;"/>
    </defs>
    <g clip-path="url(#p00eeb17d6d)">
     <use style="fill:#ff7f0e;stroke:#ff7f0e;" x="130.416099" xlink:href="#m4fef95fbae" y="194.44904"/>
     <use style="fill:#ff7f0e;stroke:#ff7f0e;" x="206.193046" xlink:href="#m4fef95fbae" y="160.008809"/>
     <use style="fill:#ff7f0e;stroke:#ff7f0e;" x="212.848742" xlink:href="#m4fef95fbae" y="148.043519"/>
     <use style="fill:#ff7f0e;stroke:#ff7f0e;" x="167.667356" xlink:href="#m4fef95fbae" y="191.184256"/>
     <use style="fill:#ff7f0e;stroke:#ff7f0e;" x="239.299579" xlink:href="#m4fef95fbae" y="163.731334"/>
     <use style="fill:#ff7f0e;stroke:#ff7f0e;" x="206.466219" xlink:href="#m4fef95fbae" y="158.580169"/>
     <use style="fill:#ff7f0e;stroke:#ff7f0e;" x="209.143742" xlink:href="#m4fef95fbae" y="184.164414"/>
     <use style="fill:#ff7f0e;stroke:#ff7f0e;" x="145.434623" xlink:href="#m4fef95fbae" y="187.267111"/>
     <use style="fill:#ff7f0e;stroke:#ff7f0e;" x="126.701808" xlink:href="#m4fef95fbae" y="213.526416"/>
     <use style="fill:#ff7f0e;stroke:#ff7f0e;" x="294.898335" xlink:href="#m4fef95fbae" y="130.139412"/>
     <use style="fill:#ff7f0e;stroke:#ff7f0e;" x="209.369257" xlink:href="#m4fef95fbae" y="135.239933"/>
     <use style="fill:#ff7f0e;stroke:#ff7f0e;" x="156.690422" xlink:href="#m4fef95fbae" y="218.775334"/>
     <use style="fill:#ff7f0e;stroke:#ff7f0e;" x="188.788787" xlink:href="#m4fef95fbae" y="180.669321"/>
     <use style="fill:#ff7f0e;stroke:#ff7f0e;" x="201.193881" xlink:href="#m4fef95fbae" y="164.848049"/>
     <use style="fill:#ff7f0e;stroke:#ff7f0e;" x="178.952828" xlink:href="#m4fef95fbae" y="176.097865"/>
     <use style="fill:#ff7f0e;stroke:#ff7f0e;" x="173.176814" xlink:href="#m4fef95fbae" y="179.261408"/>
     <use style="fill:#ff7f0e;stroke:#ff7f0e;" x="207.128582" xlink:href="#m4fef95fbae" y="171.924053"/>
     <use style="fill:#ff7f0e;stroke:#ff7f0e;" x="178.992469" xlink:href="#m4fef95fbae" y="159.718437"/>
     <use style="fill:#ff7f0e;stroke:#ff7f0e;" x="200.078432" xlink:href="#m4fef95fbae" y="152.362317"/>
     <use style="fill:#ff7f0e;stroke:#ff7f0e;" x="163.563276" xlink:href="#m4fef95fbae" y="180.337575"/>
     <use style="fill:#ff7f0e;stroke:#ff7f0e;" x="147.082468" xlink:href="#m4fef95fbae" y="194.296117"/>
     <use style="fill:#ff7f0e;stroke:#ff7f0e;" x="192.49098" xlink:href="#m4fef95fbae" y="170.742277"/>
     <use style="fill:#ff7f0e;stroke:#ff7f0e;" x="209.146572" xlink:href="#m4fef95fbae" y="136.824412"/>
     <use style="fill:#ff7f0e;stroke:#ff7f0e;" x="267.686138" xlink:href="#m4fef95fbae" y="122.275486"/>
     <use style="fill:#ff7f0e;stroke:#ff7f0e;" x="260.385003" xlink:href="#m4fef95fbae" y="131.18477"/>
     <use style="fill:#ff7f0e;stroke:#ff7f0e;" x="271.26706" xlink:href="#m4fef95fbae" y="124.867676"/>
     <use style="fill:#ff7f0e;stroke:#ff7f0e;" x="295.433687" xlink:href="#m4fef95fbae" y="132.500285"/>
     <use style="fill:#ff7f0e;stroke:#ff7f0e;" x="241.453872" xlink:href="#m4fef95fbae" y="139.771019"/>
     <use style="fill:#ff7f0e;stroke:#ff7f0e;" x="233.908418" xlink:href="#m4fef95fbae" y="139.359107"/>
     <use style="fill:#ff7f0e;stroke:#ff7f0e;" x="218.554447" xlink:href="#m4fef95fbae" y="134.158196"/>
     <use style="fill:#ff7f0e;stroke:#ff7f0e;" x="146.235383" xlink:href="#m4fef95fbae" y="196.183852"/>
     <use style="fill:#ff7f0e;stroke:#ff7f0e;" x="251.083533" xlink:href="#m4fef95fbae" y="138.71358"/>
     <use style="fill:#ff7f0e;stroke:#ff7f0e;" x="167.527726" xlink:href="#m4fef95fbae" y="184.526001"/>
     <use style="fill:#ff7f0e;stroke:#ff7f0e;" x="197.974807" xlink:href="#m4fef95fbae" y="152.720129"/>
     <use style="fill:#ff7f0e;stroke:#ff7f0e;" x="153.043941" xlink:href="#m4fef95fbae" y="203.110585"/>
     <use style="fill:#ff7f0e;stroke:#ff7f0e;" x="235.544958" xlink:href="#m4fef95fbae" y="148.570847"/>
     <use style="fill:#ff7f0e;stroke:#ff7f0e;" x="209.497781" xlink:href="#m4fef95fbae" y="151.364295"/>
     <use style="fill:#ff7f0e;stroke:#ff7f0e;" x="217.566335" xlink:href="#m4fef95fbae" y="138.432143"/>
     <use style="fill:#ff7f0e;stroke:#ff7f0e;" x="137.376586" xlink:href="#m4fef95fbae" y="207.326168"/>
     <use style="fill:#ff7f0e;stroke:#ff7f0e;" x="196.905246" xlink:href="#m4fef95fbae" y="186.059491"/>
     <use style="fill:#ff7f0e;stroke:#ff7f0e;" x="176.151644" xlink:href="#m4fef95fbae" y="182.235905"/>
     <use style="fill:#ff7f0e;stroke:#ff7f0e;" x="182.951039" xlink:href="#m4fef95fbae" y="159.860332"/>
     <use style="fill:#ff7f0e;stroke:#ff7f0e;" x="137.317085" xlink:href="#m4fef95fbae" y="214.000084"/>
     <use style="fill:#ff7f0e;stroke:#ff7f0e;" x="192.804003" xlink:href="#m4fef95fbae" y="175.295045"/>
     <use style="fill:#ff7f0e;stroke:#ff7f0e;" x="254.733127" xlink:href="#m4fef95fbae" y="128.97"/>
     <use style="fill:#ff7f0e;stroke:#ff7f0e;" x="232.147719" xlink:href="#m4fef95fbae" y="136.495822"/>
     <use style="fill:#ff7f0e;stroke:#ff7f0e;" x="147.222284" xlink:href="#m4fef95fbae" y="192.313241"/>
     <use style="fill:#ff7f0e;stroke:#ff7f0e;" x="163.675489" xlink:href="#m4fef95fbae" y="193.545293"/>
     <use style="fill:#ff7f0e;stroke:#ff7f0e;" x="183.796531" xlink:href="#m4fef95fbae" y="163.185775"/>
     <use style="fill:#ff7f0e;stroke:#ff7f0e;" x="211.981752" xlink:href="#m4fef95fbae" y="169.694471"/>
     <use style="fill:#ff7f0e;stroke:#ff7f0e;" x="228.673954" xlink:href="#m4fef95fbae" y="144.693381"/>
     <use style="fill:#ff7f0e;stroke:#ff7f0e;" x="192.07037" xlink:href="#m4fef95fbae" y="147.689692"/>
     <use style="fill:#ff7f0e;stroke:#ff7f0e;" x="200.678013" xlink:href="#m4fef95fbae" y="155.769776"/>
     <use style="fill:#ff7f0e;stroke:#ff7f0e;" x="150.519291" xlink:href="#m4fef95fbae" y="192.599234"/>
     <use style="fill:#ff7f0e;stroke:#ff7f0e;" x="166.293017" xlink:href="#m4fef95fbae" y="183.442334"/>
     <use style="fill:#ff7f0e;stroke:#ff7f0e;" x="169.421496" xlink:href="#m4fef95fbae" y="170.678496"/>
     <use style="fill:#ff7f0e;stroke:#ff7f0e;" x="155.952933" xlink:href="#m4fef95fbae" y="182.062738"/>
     <use style="fill:#ff7f0e;stroke:#ff7f0e;" x="173.862061" xlink:href="#m4fef95fbae" y="192.102747"/>
     <use style="fill:#ff7f0e;stroke:#ff7f0e;" x="135.637155" xlink:href="#m4fef95fbae" y="195.386134"/>
     <use style="fill:#ff7f0e;stroke:#ff7f0e;" x="183.466184" xlink:href="#m4fef95fbae" y="168.909124"/>
     <use style="fill:#ff7f0e;stroke:#ff7f0e;" x="154.190033" xlink:href="#m4fef95fbae" y="184.951528"/>
     <use style="fill:#ff7f0e;stroke:#ff7f0e;" x="225.846226" xlink:href="#m4fef95fbae" y="153.960732"/>
     <use style="fill:#ff7f0e;stroke:#ff7f0e;" x="231.094942" xlink:href="#m4fef95fbae" y="147.475484"/>
     <use style="fill:#ff7f0e;stroke:#ff7f0e;" x="234.784717" xlink:href="#m4fef95fbae" y="140.2271"/>
     <use style="fill:#ff7f0e;stroke:#ff7f0e;" x="250.05168" xlink:href="#m4fef95fbae" y="159.755525"/>
     <use style="fill:#ff7f0e;stroke:#ff7f0e;" x="246.895453" xlink:href="#m4fef95fbae" y="149.67988"/>
     <use style="fill:#ff7f0e;stroke:#ff7f0e;" x="216.822979" xlink:href="#m4fef95fbae" y="168.322303"/>
     <use style="fill:#ff7f0e;stroke:#ff7f0e;" x="220.781298" xlink:href="#m4fef95fbae" y="161.651283"/>
     <use style="fill:#ff7f0e;stroke:#ff7f0e;" x="222.810596" xlink:href="#m4fef95fbae" y="156.75749"/>
     <use style="fill:#ff7f0e;stroke:#ff7f0e;" x="231.254559" xlink:href="#m4fef95fbae" y="143.301464"/>
     <use style="fill:#ff7f0e;stroke:#ff7f0e;" x="150.444624" xlink:href="#m4fef95fbae" y="184.095343"/>
     <use style="fill:#ff7f0e;stroke:#ff7f0e;" x="231.706295" xlink:href="#m4fef95fbae" y="156.363181"/>
     <use style="fill:#ff7f0e;stroke:#ff7f0e;" x="230.486103" xlink:href="#m4fef95fbae" y="159.933242"/>
     <use style="fill:#ff7f0e;stroke:#ff7f0e;" x="246.259409" xlink:href="#m4fef95fbae" y="144.297332"/>
     <use style="fill:#ff7f0e;stroke:#ff7f0e;" x="199.655421" xlink:href="#m4fef95fbae" y="167.423223"/>
     <use style="fill:#ff7f0e;stroke:#ff7f0e;" x="232.660425" xlink:href="#m4fef95fbae" y="164.542745"/>
     <use style="fill:#ff7f0e;stroke:#ff7f0e;" x="216.719793" xlink:href="#m4fef95fbae" y="167.898008"/>
     <use style="fill:#ff7f0e;stroke:#ff7f0e;" x="208.635653" xlink:href="#m4fef95fbae" y="173.128018"/>
     <use style="fill:#ff7f0e;stroke:#ff7f0e;" x="212.0758" xlink:href="#m4fef95fbae" y="157.456343"/>
     <use style="fill:#ff7f0e;stroke:#ff7f0e;" x="249.517704" xlink:href="#m4fef95fbae" y="150.608544"/>
     <use style="fill:#ff7f0e;stroke:#ff7f0e;" x="156.273849" xlink:href="#m4fef95fbae" y="190.975614"/>
     <use style="fill:#ff7f0e;stroke:#ff7f0e;" x="177.355411" xlink:href="#m4fef95fbae" y="181.325186"/>
     <use style="fill:#ff7f0e;stroke:#ff7f0e;" x="152.287784" xlink:href="#m4fef95fbae" y="187.139881"/>
     <use style="fill:#ff7f0e;stroke:#ff7f0e;" x="142.297925" xlink:href="#m4fef95fbae" y="196.97671"/>
     <use style="fill:#ff7f0e;stroke:#ff7f0e;" x="216.356373" xlink:href="#m4fef95fbae" y="153.187248"/>
     <use style="fill:#ff7f0e;stroke:#ff7f0e;" x="191.906106" xlink:href="#m4fef95fbae" y="169.867905"/>
     <use style="fill:#ff7f0e;stroke:#ff7f0e;" x="156.484912" xlink:href="#m4fef95fbae" y="191.929407"/>
     <use style="fill:#ff7f0e;stroke:#ff7f0e;" x="217.487458" xlink:href="#m4fef95fbae" y="168.370795"/>
     <use style="fill:#ff7f0e;stroke:#ff7f0e;" x="219.749901" xlink:href="#m4fef95fbae" y="149.995368"/>
     <use style="fill:#ff7f0e;stroke:#ff7f0e;" x="153.097218" xlink:href="#m4fef95fbae" y="197.364713"/>
     <use style="fill:#ff7f0e;stroke:#ff7f0e;" x="184.176306" xlink:href="#m4fef95fbae" y="171.072315"/>
     <use style="fill:#ff7f0e;stroke:#ff7f0e;" x="169.827493" xlink:href="#m4fef95fbae" y="181.723835"/>
     <use style="fill:#ff7f0e;stroke:#ff7f0e;" x="218.422154" xlink:href="#m4fef95fbae" y="137.981859"/>
     <use style="fill:#ff7f0e;stroke:#ff7f0e;" x="207.119731" xlink:href="#m4fef95fbae" y="160.553108"/>
     <use style="fill:#ff7f0e;stroke:#ff7f0e;" x="266.439179" xlink:href="#m4fef95fbae" y="148.52917"/>
     <use style="fill:#ff7f0e;stroke:#ff7f0e;" x="241.18907" xlink:href="#m4fef95fbae" y="137.868151"/>
     <use style="fill:#ff7f0e;stroke:#ff7f0e;" x="218.858863" xlink:href="#m4fef95fbae" y="164.524566"/>
     <use style="fill:#ff7f0e;stroke:#ff7f0e;" x="219.897091" xlink:href="#m4fef95fbae" y="161.093707"/>
     <use style="fill:#ff7f0e;stroke:#ff7f0e;" x="267.12875" xlink:href="#m4fef95fbae" y="137.889425"/>
     <use style="fill:#ff7f0e;stroke:#ff7f0e;" x="167.274683" xlink:href="#m4fef95fbae" y="185.269326"/>
     <use style="fill:#ff7f0e;stroke:#ff7f0e;" x="219.423322" xlink:href="#m4fef95fbae" y="153.571336"/>
     <use style="fill:#ff7f0e;stroke:#ff7f0e;" x="185.752939" xlink:href="#m4fef95fbae" y="154.935307"/>
     <use style="fill:#ff7f0e;stroke:#ff7f0e;" x="216.104337" xlink:href="#m4fef95fbae" y="145.580007"/>
     <use style="fill:#ff7f0e;stroke:#ff7f0e;" x="201.230231" xlink:href="#m4fef95fbae" y="167.533247"/>
     <use style="fill:#ff7f0e;stroke:#ff7f0e;" x="193.632818" xlink:href="#m4fef95fbae" y="140.061698"/>
     <use style="fill:#ff7f0e;stroke:#ff7f0e;" x="173.587682" xlink:href="#m4fef95fbae" y="161.506266"/>
     <use style="fill:#ff7f0e;stroke:#ff7f0e;" x="204.403941" xlink:href="#m4fef95fbae" y="145.923127"/>
     <use style="fill:#ff7f0e;stroke:#ff7f0e;" x="211.022367" xlink:href="#m4fef95fbae" y="157.770885"/>
     <use style="fill:#ff7f0e;stroke:#ff7f0e;" x="198.759279" xlink:href="#m4fef95fbae" y="165.499593"/>
     <use style="fill:#ff7f0e;stroke:#ff7f0e;" x="204.64347" xlink:href="#m4fef95fbae" y="162.002906"/>
     <use style="fill:#ff7f0e;stroke:#ff7f0e;" x="224.972323" xlink:href="#m4fef95fbae" y="171.350946"/>
     <use style="fill:#ff7f0e;stroke:#ff7f0e;" x="144.000963" xlink:href="#m4fef95fbae" y="195.902628"/>
     <use style="fill:#ff7f0e;stroke:#ff7f0e;" x="149.337277" xlink:href="#m4fef95fbae" y="192.674218"/>
     <use style="fill:#ff7f0e;stroke:#ff7f0e;" x="156.477465" xlink:href="#m4fef95fbae" y="197.110495"/>
     <use style="fill:#ff7f0e;stroke:#ff7f0e;" x="195.27088" xlink:href="#m4fef95fbae" y="165.243979"/>
     <use style="fill:#ff7f0e;stroke:#ff7f0e;" x="137.019943" xlink:href="#m4fef95fbae" y="216.095501"/>
     <use style="fill:#ff7f0e;stroke:#ff7f0e;" x="196.040088" xlink:href="#m4fef95fbae" y="146.699597"/>
     <use style="fill:#ff7f0e;stroke:#ff7f0e;" x="254.531548" xlink:href="#m4fef95fbae" y="166.06367"/>
     <use style="fill:#ff7f0e;stroke:#ff7f0e;" x="201.930539" xlink:href="#m4fef95fbae" y="164.824411"/>
     <use style="fill:#ff7f0e;stroke:#ff7f0e;" x="214.255139" xlink:href="#m4fef95fbae" y="167.23971"/>
     <use style="fill:#ff7f0e;stroke:#ff7f0e;" x="241.081509" xlink:href="#m4fef95fbae" y="149.838627"/>
     <use style="fill:#ff7f0e;stroke:#ff7f0e;" x="173.798153" xlink:href="#m4fef95fbae" y="154.256859"/>
     <use style="fill:#ff7f0e;stroke:#ff7f0e;" x="216.415981" xlink:href="#m4fef95fbae" y="134.268392"/>
    </g>
   </g>
   <g id="PathCollection_3">
    <defs>
     <path d="M 0 2.738613 
C 0.726289 2.738613 1.422928 2.450055 1.936492 1.936492 
C 2.450055 1.422928 2.738613 0.726289 2.738613 0 
C 2.738613 -0.726289 2.450055 -1.422928 1.936492 -1.936492 
C 1.422928 -2.450055 0.726289 -2.738613 0 -2.738613 
C -0.726289 -2.738613 -1.422928 -2.450055 -1.936492 -1.936492 
C -2.450055 -1.422928 -2.738613 -0.726289 -2.738613 0 
C -2.738613 0.726289 -2.450055 1.422928 -1.936492 1.936492 
C -1.422928 2.450055 -0.726289 2.738613 0 2.738613 
z
" id="mcbe49a19ee" style="stroke:#2ca02c;"/>
    </defs>
    <g clip-path="url(#p00eeb17d6d)">
     <use style="fill:#2ca02c;stroke:#2ca02c;" x="183.576015" xlink:href="#mcbe49a19ee" y="50.138128"/>
     <use style="fill:#2ca02c;stroke:#2ca02c;" x="186.206174" xlink:href="#mcbe49a19ee" y="50.044863"/>
     <use style="fill:#2ca02c;stroke:#2ca02c;" x="170.620397" xlink:href="#mcbe49a19ee" y="58.070192"/>
     <use style="fill:#2ca02c;stroke:#2ca02c;" x="170.975801" xlink:href="#mcbe49a19ee" y="52.314149"/>
     <use style="fill:#2ca02c;stroke:#2ca02c;" x="193.422994" xlink:href="#mcbe49a19ee" y="34.455951"/>
     <use style="fill:#2ca02c;stroke:#2ca02c;" x="181.635383" xlink:href="#mcbe49a19ee" y="43.396711"/>
     <use style="fill:#2ca02c;stroke:#2ca02c;" x="190.123143" xlink:href="#mcbe49a19ee" y="36.245903"/>
     <use style="fill:#2ca02c;stroke:#2ca02c;" x="184.720978" xlink:href="#mcbe49a19ee" y="45.293503"/>
     <use style="fill:#2ca02c;stroke:#2ca02c;" x="191.821694" xlink:href="#mcbe49a19ee" y="42.024989"/>
     <use style="fill:#2ca02c;stroke:#2ca02c;" x="197.210134" xlink:href="#mcbe49a19ee" y="58.419837"/>
     <use style="fill:#2ca02c;stroke:#2ca02c;" x="186.649053" xlink:href="#mcbe49a19ee" y="36.052504"/>
    </g>
   </g>
   <g id="PathCollection_4">
    <defs>
     <path d="M 0 2.738613 
C 0.726289 2.738613 1.422928 2.450055 1.936492 1.936492 
C 2.450055 1.422928 2.738613 0.726289 2.738613 0 
C 2.738613 -0.726289 2.450055 -1.422928 1.936492 -1.936492 
C 1.422928 -2.450055 0.726289 -2.738613 0 -2.738613 
C -0.726289 -2.738613 -1.422928 -2.450055 -1.936492 -1.936492 
C -2.450055 -1.422928 -2.738613 -0.726289 -2.738613 0 
C -2.738613 0.726289 -2.450055 1.422928 -1.936492 1.936492 
C -1.422928 2.450055 -0.726289 2.738613 0 2.738613 
z
" id="m27c8c056fc" style="stroke:#d62728;"/>
    </defs>
    <g clip-path="url(#p00eeb17d6d)">
     <use style="fill:#d62728;stroke:#d62728;" x="234.153027" xlink:href="#m27c8c056fc" y="181.606762"/>
     <use style="fill:#d62728;stroke:#d62728;" x="277.956192" xlink:href="#m27c8c056fc" y="218.387145"/>
     <use style="fill:#d62728;stroke:#d62728;" x="242.457105" xlink:href="#m27c8c056fc" y="212.137169"/>
     <use style="fill:#d62728;stroke:#d62728;" x="273.444912" xlink:href="#m27c8c056fc" y="190.855764"/>
     <use style="fill:#d62728;stroke:#d62728;" x="219.642588" xlink:href="#m27c8c056fc" y="187.001761"/>
     <use style="fill:#d62728;stroke:#d62728;" x="252.930723" xlink:href="#m27c8c056fc" y="218.769287"/>
     <use style="fill:#d62728;stroke:#d62728;" x="219.94792" xlink:href="#m27c8c056fc" y="213.066746"/>
     <use style="fill:#d62728;stroke:#d62728;" x="214.449472" xlink:href="#m27c8c056fc" y="216.080802"/>
     <use style="fill:#d62728;stroke:#d62728;" x="243.312119" xlink:href="#m27c8c056fc" y="197.348489"/>
     <use style="fill:#d62728;stroke:#d62728;" x="248.690136" xlink:href="#m27c8c056fc" y="210.438767"/>
     <use style="fill:#d62728;stroke:#d62728;" x="253.463109" xlink:href="#m27c8c056fc" y="187.974571"/>
     <use style="fill:#d62728;stroke:#d62728;" x="221.932164" xlink:href="#m27c8c056fc" y="206.656592"/>
     <use style="fill:#d62728;stroke:#d62728;" x="201.705047" xlink:href="#m27c8c056fc" y="201.939691"/>
     <use style="fill:#d62728;stroke:#d62728;" x="246.78891" xlink:href="#m27c8c056fc" y="192.185749"/>
     <use style="fill:#d62728;stroke:#d62728;" x="212.911634" xlink:href="#m27c8c056fc" y="216.085086"/>
     <use style="fill:#d62728;stroke:#d62728;" x="264.068533" xlink:href="#m27c8c056fc" y="191.097609"/>
     <use style="fill:#d62728;stroke:#d62728;" x="217.537941" xlink:href="#m27c8c056fc" y="212.079663"/>
     <use style="fill:#d62728;stroke:#d62728;" x="238.235796" xlink:href="#m27c8c056fc" y="219.71311"/>
     <use style="fill:#d62728;stroke:#d62728;" x="249.555148" xlink:href="#m27c8c056fc" y="216.504537"/>
     <use style="fill:#d62728;stroke:#d62728;" x="216.529866" xlink:href="#m27c8c056fc" y="216.50289"/>
     <use style="fill:#d62728;stroke:#d62728;" x="259.656575" xlink:href="#m27c8c056fc" y="209.463961"/>
     <use style="fill:#d62728;stroke:#d62728;" x="230.391824" xlink:href="#m27c8c056fc" y="227.282473"/>
    </g>
   </g>
   <g id="PathCollection_5">
    <defs>
     <path d="M 0 2.738613 
C 0.726289 2.738613 1.422928 2.450055 1.936492 1.936492 
C 2.450055 1.422928 2.738613 0.726289 2.738613 0 
C 2.738613 -0.726289 2.450055 -1.422928 1.936492 -1.936492 
C 1.422928 -2.450055 0.726289 -2.738613 0 -2.738613 
C -0.726289 -2.738613 -1.422928 -2.450055 -1.936492 -1.936492 
C -2.450055 -1.422928 -2.738613 -0.726289 -2.738613 0 
C -2.738613 0.726289 -2.450055 1.422928 -1.936492 1.936492 
C -1.422928 2.450055 -0.726289 2.738613 0 2.738613 
z
" id="m77b87ce1b9" style="stroke:#9467bd;"/>
    </defs>
    <g clip-path="url(#p00eeb17d6d)">
     <use style="fill:#9467bd;stroke:#9467bd;" x="269.977918" xlink:href="#m77b87ce1b9" y="182.094353"/>
     <use style="fill:#9467bd;stroke:#9467bd;" x="251.423523" xlink:href="#m77b87ce1b9" y="179.336601"/>
     <use style="fill:#9467bd;stroke:#9467bd;" x="233.917094" xlink:href="#m77b87ce1b9" y="183.487703"/>
     <use style="fill:#9467bd;stroke:#9467bd;" x="242.160054" xlink:href="#m77b87ce1b9" y="167.740941"/>
     <use style="fill:#9467bd;stroke:#9467bd;" x="226.744067" xlink:href="#m77b87ce1b9" y="186.782921"/>
     <use style="fill:#9467bd;stroke:#9467bd;" x="222.627974" xlink:href="#m77b87ce1b9" y="190.254396"/>
     <use style="fill:#9467bd;stroke:#9467bd;" x="214.622957" xlink:href="#m77b87ce1b9" y="176.451246"/>
     <use style="fill:#9467bd;stroke:#9467bd;" x="218.980883" xlink:href="#m77b87ce1b9" y="178.728612"/>
     <use style="fill:#9467bd;stroke:#9467bd;" x="216.187778" xlink:href="#m77b87ce1b9" y="178.88545"/>
     <use style="fill:#9467bd;stroke:#9467bd;" x="220.592202" xlink:href="#m77b87ce1b9" y="192.510734"/>
     <use style="fill:#9467bd;stroke:#9467bd;" x="275.786224" xlink:href="#m77b87ce1b9" y="181.288793"/>
     <use style="fill:#9467bd;stroke:#9467bd;" x="250.19912" xlink:href="#m77b87ce1b9" y="171.814748"/>
     <use style="fill:#9467bd;stroke:#9467bd;" x="243.985375" xlink:href="#m77b87ce1b9" y="180.968109"/>
     <use style="fill:#9467bd;stroke:#9467bd;" x="230.072819" xlink:href="#m77b87ce1b9" y="173.249359"/>
    </g>
   </g>
   <g id="PathCollection_6">
    <defs>
     <path d="M 0 2.738613 
C 0.726289 2.738613 1.422928 2.450055 1.936492 1.936492 
C 2.450055 1.422928 2.738613 0.726289 2.738613 0 
C 2.738613 -0.726289 2.450055 -1.422928 1.936492 -1.936492 
C 1.422928 -2.450055 0.726289 -2.738613 0 -2.738613 
C -0.726289 -2.738613 -1.422928 -2.450055 -1.936492 -1.936492 
C -2.450055 -1.422928 -2.738613 -0.726289 -2.738613 0 
C -2.738613 0.726289 -2.450055 1.422928 -1.936492 1.936492 
C -1.422928 2.450055 -0.726289 2.738613 0 2.738613 
z
" id="m61cc20c133" style="stroke:#8c564b;"/>
    </defs>
    <g clip-path="url(#p00eeb17d6d)">
     <use style="fill:#8c564b;stroke:#8c564b;" x="298.626433" xlink:href="#m61cc20c133" y="133.967855"/>
     <use style="fill:#8c564b;stroke:#8c564b;" x="304.647511" xlink:href="#m61cc20c133" y="139.255332"/>
     <use style="fill:#8c564b;stroke:#8c564b;" x="317.654136" xlink:href="#m61cc20c133" y="130.073796"/>
     <use style="fill:#8c564b;stroke:#8c564b;" x="320.163345" xlink:href="#m61cc20c133" y="131.860501"/>
     <use style="fill:#8c564b;stroke:#8c564b;" x="305.533759" xlink:href="#m61cc20c133" y="155.63845"/>
     <use style="fill:#8c564b;stroke:#8c564b;" x="324.264414" xlink:href="#m61cc20c133" y="144.326896"/>
     <use style="fill:#8c564b;stroke:#8c564b;" x="350.352638" xlink:href="#m61cc20c133" y="128.653801"/>
     <use style="fill:#8c564b;stroke:#8c564b;" x="327.101173" xlink:href="#m61cc20c133" y="131.475211"/>
     <use style="fill:#8c564b;stroke:#8c564b;" x="335.504929" xlink:href="#m61cc20c133" y="150.811209"/>
     <use style="fill:#8c564b;stroke:#8c564b;" x="321.123622" xlink:href="#m61cc20c133" y="138.009579"/>
     <use style="fill:#8c564b;stroke:#8c564b;" x="322.888128" xlink:href="#m61cc20c133" y="133.903883"/>
     <use style="fill:#8c564b;stroke:#8c564b;" x="309.384893" xlink:href="#m61cc20c133" y="149.311397"/>
     <use style="fill:#8c564b;stroke:#8c564b;" x="341.902281" xlink:href="#m61cc20c133" y="130.029664"/>
     <use style="fill:#8c564b;stroke:#8c564b;" x="309.36927" xlink:href="#m61cc20c133" y="142.051973"/>
     <use style="fill:#8c564b;stroke:#8c564b;" x="310.515373" xlink:href="#m61cc20c133" y="145.653545"/>
     <use style="fill:#8c564b;stroke:#8c564b;" x="330.051169" xlink:href="#m61cc20c133" y="144.866302"/>
     <use style="fill:#8c564b;stroke:#8c564b;" x="294.697037" xlink:href="#m61cc20c133" y="162.264804"/>
     <use style="fill:#8c564b;stroke:#8c564b;" x="296.929711" xlink:href="#m61cc20c133" y="157.458564"/>
     <use style="fill:#8c564b;stroke:#8c564b;" x="294.417615" xlink:href="#m61cc20c133" y="137.186641"/>
     <use style="fill:#8c564b;stroke:#8c564b;" x="291.612396" xlink:href="#m61cc20c133" y="146.382729"/>
     <use style="fill:#8c564b;stroke:#8c564b;" x="283.123693" xlink:href="#m61cc20c133" y="161.709652"/>
     <use style="fill:#8c564b;stroke:#8c564b;" x="334.519422" xlink:href="#m61cc20c133" y="151.94899"/>
     <use style="fill:#8c564b;stroke:#8c564b;" x="289.357141" xlink:href="#m61cc20c133" y="162.818934"/>
    </g>
   </g>
   <g id="PathCollection_7">
    <defs>
     <path d="M 0 2.738613 
C 0.726289 2.738613 1.422928 2.450055 1.936492 1.936492 
C 2.450055 1.422928 2.738613 0.726289 2.738613 0 
C 2.738613 -0.726289 2.450055 -1.422928 1.936492 -1.936492 
C 1.422928 -2.450055 0.726289 -2.738613 0 -2.738613 
C -0.726289 -2.738613 -1.422928 -2.450055 -1.936492 -1.936492 
C -2.450055 -1.422928 -2.738613 -0.726289 -2.738613 0 
C -2.738613 0.726289 -2.450055 1.422928 -1.936492 1.936492 
C -1.422928 2.450055 -0.726289 2.738613 0 2.738613 
z
" id="m27a899ad66" style="stroke:#e377c2;"/>
    </defs>
    <g clip-path="url(#p00eeb17d6d)">
     <use style="fill:#e377c2;stroke:#e377c2;" x="313.648318" xlink:href="#m27a899ad66" y="114.85865"/>
     <use style="fill:#e377c2;stroke:#e377c2;" x="305.339484" xlink:href="#m27a899ad66" y="119.42075"/>
     <use style="fill:#e377c2;stroke:#e377c2;" x="312.959308" xlink:href="#m27a899ad66" y="122.562112"/>
     <use style="fill:#e377c2;stroke:#e377c2;" x="324.434818" xlink:href="#m27a899ad66" y="97.966109"/>
     <use style="fill:#e377c2;stroke:#e377c2;" x="315.983202" xlink:href="#m27a899ad66" y="108.833634"/>
     <use style="fill:#e377c2;stroke:#e377c2;" x="319.767091" xlink:href="#m27a899ad66" y="103.701129"/>
     <use style="fill:#e377c2;stroke:#e377c2;" x="333.677842" xlink:href="#m27a899ad66" y="105.139617"/>
     <use style="fill:#e377c2;stroke:#e377c2;" x="323.105451" xlink:href="#m27a899ad66" y="117.757762"/>
     <use style="fill:#e377c2;stroke:#e377c2;" x="314.865757" xlink:href="#m27a899ad66" y="121.85406"/>
     <use style="fill:#e377c2;stroke:#e377c2;" x="335.595863" xlink:href="#m27a899ad66" y="86.086648"/>
     <use style="fill:#e377c2;stroke:#e377c2;" x="289.223051" xlink:href="#m27a899ad66" y="124.889713"/>
     <use style="fill:#e377c2;stroke:#e377c2;" x="341.777727" xlink:href="#m27a899ad66" y="92.212783"/>
     <use style="fill:#e377c2;stroke:#e377c2;" x="348.512946" xlink:href="#m27a899ad66" y="81.378633"/>
     <use style="fill:#e377c2;stroke:#e377c2;" x="341.021544" xlink:href="#m27a899ad66" y="95.567877"/>
     <use style="fill:#e377c2;stroke:#e377c2;" x="341.669265" xlink:href="#m27a899ad66" y="96.161667"/>
     <use style="fill:#e377c2;stroke:#e377c2;" x="312.649086" xlink:href="#m27a899ad66" y="96.470061"/>
     <use style="fill:#e377c2;stroke:#e377c2;" x="333.75162" xlink:href="#m27a899ad66" y="100.821487"/>
     <use style="fill:#e377c2;stroke:#e377c2;" x="316.793237" xlink:href="#m27a899ad66" y="115.014976"/>
     <use style="fill:#e377c2;stroke:#e377c2;" x="337.593639" xlink:href="#m27a899ad66" y="83.251773"/>
     <use style="fill:#e377c2;stroke:#e377c2;" x="298.950839" xlink:href="#m27a899ad66" y="119.461952"/>
     <use style="fill:#e377c2;stroke:#e377c2;" x="322.3996" xlink:href="#m27a899ad66" y="110.939464"/>
     <use style="fill:#e377c2;stroke:#e377c2;" x="369.178071" xlink:href="#m27a899ad66" y="82.216304"/>
     <use style="fill:#e377c2;stroke:#e377c2;" x="346.587568" xlink:href="#m27a899ad66" y="102.090545"/>
     <use style="fill:#e377c2;stroke:#e377c2;" x="307.647751" xlink:href="#m27a899ad66" y="111.740785"/>
     <use style="fill:#e377c2;stroke:#e377c2;" x="331.368392" xlink:href="#m27a899ad66" y="95.898336"/>
     <use style="fill:#e377c2;stroke:#e377c2;" x="332.143346" xlink:href="#m27a899ad66" y="93.259886"/>
     <use style="fill:#e377c2;stroke:#e377c2;" x="300.714788" xlink:href="#m27a899ad66" y="107.935744"/>
     <use style="fill:#e377c2;stroke:#e377c2;" x="305.114991" xlink:href="#m27a899ad66" y="113.810391"/>
     <use style="fill:#e377c2;stroke:#e377c2;" x="317.68561" xlink:href="#m27a899ad66" y="114.634767"/>
     <use style="fill:#e377c2;stroke:#e377c2;" x="325.74897" xlink:href="#m27a899ad66" y="98.370242"/>
     <use style="fill:#e377c2;stroke:#e377c2;" x="319.022476" xlink:href="#m27a899ad66" y="116.45946"/>
    </g>
   </g>
   <g id="PathCollection_8">
    <defs>
     <path d="M 0 2.738613 
C 0.726289 2.738613 1.422928 2.450055 1.936492 1.936492 
C 2.450055 1.422928 2.738613 0.726289 2.738613 0 
C 2.738613 -0.726289 2.450055 -1.422928 1.936492 -1.936492 
C 1.422928 -2.450055 0.726289 -2.738613 0 -2.738613 
C -0.726289 -2.738613 -1.422928 -2.450055 -1.936492 -1.936492 
C -2.450055 -1.422928 -2.738613 -0.726289 -2.738613 0 
C -2.738613 0.726289 -2.450055 1.422928 -1.936492 1.936492 
C -1.422928 2.450055 -0.726289 2.738613 0 2.738613 
z
" id="m4bc585709e" style="stroke:#7f7f7f;"/>
    </defs>
    <g clip-path="url(#p00eeb17d6d)">
     <use style="fill:#7f7f7f;stroke:#7f7f7f;" x="145.594248" xlink:href="#m4bc585709e" y="169.519596"/>
     <use style="fill:#7f7f7f;stroke:#7f7f7f;" x="175.009647" xlink:href="#m4bc585709e" y="156.557879"/>
     <use style="fill:#7f7f7f;stroke:#7f7f7f;" x="137.662011" xlink:href="#m4bc585709e" y="183.879685"/>
     <use style="fill:#7f7f7f;stroke:#7f7f7f;" x="140.26392" xlink:href="#m4bc585709e" y="173.270807"/>
     <use style="fill:#7f7f7f;stroke:#7f7f7f;" x="126.086958" xlink:href="#m4bc585709e" y="185.878293"/>
     <use style="fill:#7f7f7f;stroke:#7f7f7f;" x="112.359707" xlink:href="#m4bc585709e" y="203.776969"/>
     <use style="fill:#7f7f7f;stroke:#7f7f7f;" x="125.002793" xlink:href="#m4bc585709e" y="183.871427"/>
     <use style="fill:#7f7f7f;stroke:#7f7f7f;" x="178.064269" xlink:href="#m4bc585709e" y="152.326481"/>
     <use style="fill:#7f7f7f;stroke:#7f7f7f;" x="139.971388" xlink:href="#m4bc585709e" y="175.084044"/>
     <use style="fill:#7f7f7f;stroke:#7f7f7f;" x="166.312747" xlink:href="#m4bc585709e" y="172.196312"/>
     <use style="fill:#7f7f7f;stroke:#7f7f7f;" x="103.219206" xlink:href="#m4bc585709e" y="197.611953"/>
     <use style="fill:#7f7f7f;stroke:#7f7f7f;" x="129.268626" xlink:href="#m4bc585709e" y="179.651181"/>
     <use style="fill:#7f7f7f;stroke:#7f7f7f;" x="181.066257" xlink:href="#m4bc585709e" y="165.76858"/>
     <use style="fill:#7f7f7f;stroke:#7f7f7f;" x="131.254869" xlink:href="#m4bc585709e" y="190.419704"/>
     <use style="fill:#7f7f7f;stroke:#7f7f7f;" x="157.547652" xlink:href="#m4bc585709e" y="163.443605"/>
     <use style="fill:#7f7f7f;stroke:#7f7f7f;" x="154.479589" xlink:href="#m4bc585709e" y="170.619865"/>
     <use style="fill:#7f7f7f;stroke:#7f7f7f;" x="152.839544" xlink:href="#m4bc585709e" y="164.888549"/>
     <use style="fill:#7f7f7f;stroke:#7f7f7f;" x="129.222865" xlink:href="#m4bc585709e" y="181.588959"/>
     <use style="fill:#7f7f7f;stroke:#7f7f7f;" x="114.045796" xlink:href="#m4bc585709e" y="193.483557"/>
     <use style="fill:#7f7f7f;stroke:#7f7f7f;" x="146.340509" xlink:href="#m4bc585709e" y="195.172524"/>
     <use style="fill:#7f7f7f;stroke:#7f7f7f;" x="173.02623" xlink:href="#m4bc585709e" y="169.099509"/>
    </g>
   </g>
   <g id="PathCollection_9">
    <defs>
     <path d="M 0 2.738613 
C 0.726289 2.738613 1.422928 2.450055 1.936492 1.936492 
C 2.450055 1.422928 2.738613 0.726289 2.738613 0 
C 2.738613 -0.726289 2.450055 -1.422928 1.936492 -1.936492 
C 1.422928 -2.450055 0.726289 -2.738613 0 -2.738613 
C -0.726289 -2.738613 -1.422928 -2.450055 -1.936492 -1.936492 
C -2.450055 -1.422928 -2.738613 -0.726289 -2.738613 0 
C -2.738613 0.726289 -2.450055 1.422928 -1.936492 1.936492 
C -1.422928 2.450055 -0.726289 2.738613 0 2.738613 
z
" id="m08f0e26522" style="stroke:#bcbd22;"/>
    </defs>
    <g clip-path="url(#p00eeb17d6d)">
     <use style="fill:#bcbd22;stroke:#bcbd22;" x="231.952239" xlink:href="#m08f0e26522" y="161.52133"/>
     <use style="fill:#bcbd22;stroke:#bcbd22;" x="231.260502" xlink:href="#m08f0e26522" y="181.993848"/>
     <use style="fill:#bcbd22;stroke:#bcbd22;" x="242.21562" xlink:href="#m08f0e26522" y="166.898545"/>
     <use style="fill:#bcbd22;stroke:#bcbd22;" x="220.67816" xlink:href="#m08f0e26522" y="191.91933"/>
     <use style="fill:#bcbd22;stroke:#bcbd22;" x="255.910954" xlink:href="#m08f0e26522" y="143.69138"/>
     <use style="fill:#bcbd22;stroke:#bcbd22;" x="275.033422" xlink:href="#m08f0e26522" y="130.354233"/>
     <use style="fill:#bcbd22;stroke:#bcbd22;" x="288.491597" xlink:href="#m08f0e26522" y="138.786178"/>
     <use style="fill:#bcbd22;stroke:#bcbd22;" x="298.725306" xlink:href="#m08f0e26522" y="137.20962"/>
     <use style="fill:#bcbd22;stroke:#bcbd22;" x="243.327979" xlink:href="#m08f0e26522" y="161.175539"/>
     <use style="fill:#bcbd22;stroke:#bcbd22;" x="230.848121" xlink:href="#m08f0e26522" y="172.55912"/>
     <use style="fill:#bcbd22;stroke:#bcbd22;" x="215.87942" xlink:href="#m08f0e26522" y="176.608957"/>
     <use style="fill:#bcbd22;stroke:#bcbd22;" x="245.67778" xlink:href="#m08f0e26522" y="146.610812"/>
     <use style="fill:#bcbd22;stroke:#bcbd22;" x="241.252608" xlink:href="#m08f0e26522" y="148.894339"/>
     <use style="fill:#bcbd22;stroke:#bcbd22;" x="214.894434" xlink:href="#m08f0e26522" y="170.460246"/>
     <use style="fill:#bcbd22;stroke:#bcbd22;" x="247.831346" xlink:href="#m08f0e26522" y="149.253077"/>
     <use style="fill:#bcbd22;stroke:#bcbd22;" x="271.948683" xlink:href="#m08f0e26522" y="129.964285"/>
     <use style="fill:#bcbd22;stroke:#bcbd22;" x="262.945841" xlink:href="#m08f0e26522" y="164.97472"/>
     <use style="fill:#bcbd22;stroke:#bcbd22;" x="271.554667" xlink:href="#m08f0e26522" y="158.420226"/>
     <use style="fill:#bcbd22;stroke:#bcbd22;" x="249.52412" xlink:href="#m08f0e26522" y="181.441154"/>
     <use style="fill:#bcbd22;stroke:#bcbd22;" x="230.154963" xlink:href="#m08f0e26522" y="169.034828"/>
     <use style="fill:#bcbd22;stroke:#bcbd22;" x="236.530437" xlink:href="#m08f0e26522" y="153.596735"/>
     <use style="fill:#bcbd22;stroke:#bcbd22;" x="284.499589" xlink:href="#m08f0e26522" y="124.289648"/>
     <use style="fill:#bcbd22;stroke:#bcbd22;" x="209.551145" xlink:href="#m08f0e26522" y="165.392478"/>
     <use style="fill:#bcbd22;stroke:#bcbd22;" x="232.880414" xlink:href="#m08f0e26522" y="160.767796"/>
     <use style="fill:#bcbd22;stroke:#bcbd22;" x="243.398453" xlink:href="#m08f0e26522" y="179.061448"/>
     <use style="fill:#bcbd22;stroke:#bcbd22;" x="218.899469" xlink:href="#m08f0e26522" y="181.84341"/>
     <use style="fill:#bcbd22;stroke:#bcbd22;" x="205.00407" xlink:href="#m08f0e26522" y="185.132948"/>
     <use style="fill:#bcbd22;stroke:#bcbd22;" x="214.407352" xlink:href="#m08f0e26522" y="167.997691"/>
     <use style="fill:#bcbd22;stroke:#bcbd22;" x="213.015403" xlink:href="#m08f0e26522" y="166.188579"/>
     <use style="fill:#bcbd22;stroke:#bcbd22;" x="197.693714" xlink:href="#m08f0e26522" y="182.346926"/>
     <use style="fill:#bcbd22;stroke:#bcbd22;" x="299.491968" xlink:href="#m08f0e26522" y="141.819637"/>
     <use style="fill:#bcbd22;stroke:#bcbd22;" x="259.664283" xlink:href="#m08f0e26522" y="145.376903"/>
     <use style="fill:#bcbd22;stroke:#bcbd22;" x="230.538892" xlink:href="#m08f0e26522" y="165.425337"/>
     <use style="fill:#bcbd22;stroke:#bcbd22;" x="227.203615" xlink:href="#m08f0e26522" y="182.319028"/>
     <use style="fill:#bcbd22;stroke:#bcbd22;" x="255.85965" xlink:href="#m08f0e26522" y="184.117772"/>
     <use style="fill:#bcbd22;stroke:#bcbd22;" x="234.255623" xlink:href="#m08f0e26522" y="174.722238"/>
     <use style="fill:#bcbd22;stroke:#bcbd22;" x="233.894287" xlink:href="#m08f0e26522" y="173.955439"/>
     <use style="fill:#bcbd22;stroke:#bcbd22;" x="254.794894" xlink:href="#m08f0e26522" y="154.699494"/>
     <use style="fill:#bcbd22;stroke:#bcbd22;" x="243.636334" xlink:href="#m08f0e26522" y="190.396655"/>
     <use style="fill:#bcbd22;stroke:#bcbd22;" x="208.508846" xlink:href="#m08f0e26522" y="177.38255"/>
     <use style="fill:#bcbd22;stroke:#bcbd22;" x="215.049444" xlink:href="#m08f0e26522" y="170.714234"/>
     <use style="fill:#bcbd22;stroke:#bcbd22;" x="212.063521" xlink:href="#m08f0e26522" y="175.939525"/>
     <use style="fill:#bcbd22;stroke:#bcbd22;" x="211.219488" xlink:href="#m08f0e26522" y="181.940725"/>
     <use style="fill:#bcbd22;stroke:#bcbd22;" x="241.03802" xlink:href="#m08f0e26522" y="162.202724"/>
     <use style="fill:#bcbd22;stroke:#bcbd22;" x="249.175174" xlink:href="#m08f0e26522" y="164.058884"/>
     <use style="fill:#bcbd22;stroke:#bcbd22;" x="303.720801" xlink:href="#m08f0e26522" y="145.179869"/>
     <use style="fill:#bcbd22;stroke:#bcbd22;" x="224.869473" xlink:href="#m08f0e26522" y="166.615599"/>
     <use style="fill:#bcbd22;stroke:#bcbd22;" x="242.440318" xlink:href="#m08f0e26522" y="158.879172"/>
     <use style="fill:#bcbd22;stroke:#bcbd22;" x="282.634048" xlink:href="#m08f0e26522" y="148.550869"/>
     <use style="fill:#bcbd22;stroke:#bcbd22;" x="270.234453" xlink:href="#m08f0e26522" y="143.011786"/>
     <use style="fill:#bcbd22;stroke:#bcbd22;" x="271.45927" xlink:href="#m08f0e26522" y="140.870394"/>
     <use style="fill:#bcbd22;stroke:#bcbd22;" x="257.575691" xlink:href="#m08f0e26522" y="141.688255"/>
     <use style="fill:#bcbd22;stroke:#bcbd22;" x="242.024087" xlink:href="#m08f0e26522" y="166.518079"/>
     <use style="fill:#bcbd22;stroke:#bcbd22;" x="181.279744" xlink:href="#m08f0e26522" y="180.865479"/>
     <use style="fill:#bcbd22;stroke:#bcbd22;" x="254.527239" xlink:href="#m08f0e26522" y="164.93418"/>
     <use style="fill:#bcbd22;stroke:#bcbd22;" x="215.383797" xlink:href="#m08f0e26522" y="161.716608"/>
     <use style="fill:#bcbd22;stroke:#bcbd22;" x="234.850153" xlink:href="#m08f0e26522" y="163.520946"/>
     <use style="fill:#bcbd22;stroke:#bcbd22;" x="244.322829" xlink:href="#m08f0e26522" y="166.692848"/>
     <use style="fill:#bcbd22;stroke:#bcbd22;" x="250.114926" xlink:href="#m08f0e26522" y="167.160327"/>
     <use style="fill:#bcbd22;stroke:#bcbd22;" x="213.805248" xlink:href="#m08f0e26522" y="166.810019"/>
     <use style="fill:#bcbd22;stroke:#bcbd22;" x="243.353238" xlink:href="#m08f0e26522" y="146.115898"/>
     <use style="fill:#bcbd22;stroke:#bcbd22;" x="275.454181" xlink:href="#m08f0e26522" y="127.48477"/>
     <use style="fill:#bcbd22;stroke:#bcbd22;" x="228.032981" xlink:href="#m08f0e26522" y="167.822811"/>
     <use style="fill:#bcbd22;stroke:#bcbd22;" x="228.7816" xlink:href="#m08f0e26522" y="161.053134"/>
     <use style="fill:#bcbd22;stroke:#bcbd22;" x="203.671662" xlink:href="#m08f0e26522" y="172.12913"/>
     <use style="fill:#bcbd22;stroke:#bcbd22;" x="199.479007" xlink:href="#m08f0e26522" y="180.496347"/>
     <use style="fill:#bcbd22;stroke:#bcbd22;" x="214.406595" xlink:href="#m08f0e26522" y="164.05909"/>
     <use style="fill:#bcbd22;stroke:#bcbd22;" x="267.045199" xlink:href="#m08f0e26522" y="154.326782"/>
     <use style="fill:#bcbd22;stroke:#bcbd22;" x="250.835112" xlink:href="#m08f0e26522" y="160.571506"/>
     <use style="fill:#bcbd22;stroke:#bcbd22;" x="259.267014" xlink:href="#m08f0e26522" y="139.799377"/>
     <use style="fill:#bcbd22;stroke:#bcbd22;" x="261.450382" xlink:href="#m08f0e26522" y="155.720299"/>
     <use style="fill:#bcbd22;stroke:#bcbd22;" x="242.894213" xlink:href="#m08f0e26522" y="180.171159"/>
     <use style="fill:#bcbd22;stroke:#bcbd22;" x="229.921278" xlink:href="#m08f0e26522" y="176.756838"/>
     <use style="fill:#bcbd22;stroke:#bcbd22;" x="247.499834" xlink:href="#m08f0e26522" y="144.944881"/>
     <use style="fill:#bcbd22;stroke:#bcbd22;" x="235.162603" xlink:href="#m08f0e26522" y="160.02229"/>
     <use style="fill:#bcbd22;stroke:#bcbd22;" x="275.172349" xlink:href="#m08f0e26522" y="157.604287"/>
     <use style="fill:#bcbd22;stroke:#bcbd22;" x="272.739236" xlink:href="#m08f0e26522" y="177.847386"/>
     <use style="fill:#bcbd22;stroke:#bcbd22;" x="248.903291" xlink:href="#m08f0e26522" y="173.209642"/>
     <use style="fill:#bcbd22;stroke:#bcbd22;" x="262.232778" xlink:href="#m08f0e26522" y="147.382368"/>
    </g>
   </g>
   <g id="PathCollection_10">
    <defs>
     <path d="M 0 2.738613 
C 0.726289 2.738613 1.422928 2.450055 1.936492 1.936492 
C 2.450055 1.422928 2.738613 0.726289 2.738613 0 
C 2.738613 -0.726289 2.450055 -1.422928 1.936492 -1.936492 
C 1.422928 -2.450055 0.726289 -2.738613 0 -2.738613 
C -0.726289 -2.738613 -1.422928 -2.450055 -1.936492 -1.936492 
C -2.450055 -1.422928 -2.738613 -0.726289 -2.738613 0 
C -2.738613 0.726289 -2.450055 1.422928 -1.936492 1.936492 
C -1.422928 2.450055 -0.726289 2.738613 0 2.738613 
z
" id="m2e11308b5b" style="stroke:#17becf;"/>
    </defs>
    <g clip-path="url(#p00eeb17d6d)">
     <use style="fill:#17becf;stroke:#17becf;" x="275.2451" xlink:href="#m2e11308b5b" y="97.880803"/>
     <use style="fill:#17becf;stroke:#17becf;" x="300.586894" xlink:href="#m2e11308b5b" y="96.480384"/>
     <use style="fill:#17becf;stroke:#17becf;" x="298.57434" xlink:href="#m2e11308b5b" y="96.11852"/>
     <use style="fill:#17becf;stroke:#17becf;" x="293.755726" xlink:href="#m2e11308b5b" y="90.224386"/>
     <use style="fill:#17becf;stroke:#17becf;" x="290.349364" xlink:href="#m2e11308b5b" y="90.591429"/>
     <use style="fill:#17becf;stroke:#17becf;" x="283.093946" xlink:href="#m2e11308b5b" y="99.377531"/>
     <use style="fill:#17becf;stroke:#17becf;" x="273.02776" xlink:href="#m2e11308b5b" y="102.682243"/>
     <use style="fill:#17becf;stroke:#17becf;" x="285.845082" xlink:href="#m2e11308b5b" y="104.161402"/>
     <use style="fill:#17becf;stroke:#17becf;" x="293.83003" xlink:href="#m2e11308b5b" y="90.950953"/>
     <use style="fill:#17becf;stroke:#17becf;" x="330.56149" xlink:href="#m2e11308b5b" y="92.546805"/>
     <use style="fill:#17becf;stroke:#17becf;" x="291.739142" xlink:href="#m2e11308b5b" y="102.671563"/>
    </g>
   </g>
   <g id="PathCollection_11">
    <g clip-path="url(#p00eeb17d6d)">
     <use style="fill:#1f77b4;stroke:#1f77b4;" x="273.036423" xlink:href="#mb1a2b3e165" y="178.116516"/>
     <use style="fill:#1f77b4;stroke:#1f77b4;" x="235.783564" xlink:href="#mb1a2b3e165" y="172.583051"/>
     <use style="fill:#1f77b4;stroke:#1f77b4;" x="257.038453" xlink:href="#mb1a2b3e165" y="162.817832"/>
     <use style="fill:#1f77b4;stroke:#1f77b4;" x="276.506092" xlink:href="#mb1a2b3e165" y="166.084402"/>
     <use style="fill:#1f77b4;stroke:#1f77b4;" x="269.285241" xlink:href="#mb1a2b3e165" y="179.991683"/>
     <use style="fill:#1f77b4;stroke:#1f77b4;" x="244.712791" xlink:href="#mb1a2b3e165" y="175.061443"/>
     <use style="fill:#1f77b4;stroke:#1f77b4;" x="245.2224" xlink:href="#mb1a2b3e165" y="172.545083"/>
     <use style="fill:#1f77b4;stroke:#1f77b4;" x="253.440156" xlink:href="#mb1a2b3e165" y="166.488156"/>
     <use style="fill:#1f77b4;stroke:#1f77b4;" x="217.284159" xlink:href="#mb1a2b3e165" y="173.297831"/>
     <use style="fill:#1f77b4;stroke:#1f77b4;" x="257.984202" xlink:href="#mb1a2b3e165" y="168.826686"/>
     <use style="fill:#1f77b4;stroke:#1f77b4;" x="254.944159" xlink:href="#mb1a2b3e165" y="170.536483"/>
    </g>
   </g>
   <g id="PathCollection_12">
    <g clip-path="url(#p00eeb17d6d)">
     <use style="fill:#ff7f0e;stroke:#ff7f0e;" x="161.722979" xlink:href="#m4fef95fbae" y="198.128966"/>
     <use style="fill:#ff7f0e;stroke:#ff7f0e;" x="163.974629" xlink:href="#m4fef95fbae" y="192.35123"/>
     <use style="fill:#ff7f0e;stroke:#ff7f0e;" x="134.883806" xlink:href="#m4fef95fbae" y="213.569365"/>
     <use style="fill:#ff7f0e;stroke:#ff7f0e;" x="166.133126" xlink:href="#m4fef95fbae" y="185.963777"/>
     <use style="fill:#ff7f0e;stroke:#ff7f0e;" x="139.083538" xlink:href="#m4fef95fbae" y="218.486254"/>
     <use style="fill:#ff7f0e;stroke:#ff7f0e;" x="151.904165" xlink:href="#m4fef95fbae" y="203.810009"/>
     <use style="fill:#ff7f0e;stroke:#ff7f0e;" x="158.493494" xlink:href="#m4fef95fbae" y="197.141308"/>
     <use style="fill:#ff7f0e;stroke:#ff7f0e;" x="175.181845" xlink:href="#m4fef95fbae" y="204.905217"/>
     <use style="fill:#ff7f0e;stroke:#ff7f0e;" x="135.80167" xlink:href="#m4fef95fbae" y="207.255881"/>
     <use style="fill:#ff7f0e;stroke:#ff7f0e;" x="136.735225" xlink:href="#m4fef95fbae" y="206.973986"/>
     <use style="fill:#ff7f0e;stroke:#ff7f0e;" x="157.278292" xlink:href="#m4fef95fbae" y="207.272079"/>
     <use style="fill:#ff7f0e;stroke:#ff7f0e;" x="195.632134" xlink:href="#m4fef95fbae" y="193.361987"/>
     <use style="fill:#ff7f0e;stroke:#ff7f0e;" x="169.698689" xlink:href="#m4fef95fbae" y="197.201734"/>
    </g>
   </g>
   <g id="PathCollection_13">
    <g clip-path="url(#p00eeb17d6d)">
     <use style="fill:#2ca02c;stroke:#2ca02c;" x="228.869559" xlink:href="#mcbe49a19ee" y="206.561082"/>
     <use style="fill:#2ca02c;stroke:#2ca02c;" x="198.859492" xlink:href="#mcbe49a19ee" y="219.963571"/>
     <use style="fill:#2ca02c;stroke:#2ca02c;" x="204.091709" xlink:href="#mcbe49a19ee" y="213.075366"/>
     <use style="fill:#2ca02c;stroke:#2ca02c;" x="248.889747" xlink:href="#mcbe49a19ee" y="213.020118"/>
     <use style="fill:#2ca02c;stroke:#2ca02c;" x="215.59519" xlink:href="#mcbe49a19ee" y="210.360119"/>
     <use style="fill:#2ca02c;stroke:#2ca02c;" x="227.630216" xlink:href="#mcbe49a19ee" y="206.805237"/>
     <use style="fill:#2ca02c;stroke:#2ca02c;" x="242.592902" xlink:href="#mcbe49a19ee" y="198.359196"/>
     <use style="fill:#2ca02c;stroke:#2ca02c;" x="217.404471" xlink:href="#mcbe49a19ee" y="202.109963"/>
    </g>
   </g>
   <g id="matplotlib.axis_1">
    <g id="xtick_1">
     <g id="line2d_1">
      <defs>
       <path d="M 0 0 
L 0 3.5 
" id="mce6ae89f48" style="stroke:#000000;stroke-width:0.8;"/>
      </defs>
      <g>
       <use style="stroke:#000000;stroke-width:0.8;" x="87.437389" xlink:href="#mce6ae89f48" y="239.758125"/>
      </g>
     </g>
     <g id="text_1">
      <!-- 0.0 -->
      <defs>
       <path d="M 31.78125 66.40625 
Q 24.171875 66.40625 20.328125 58.90625 
Q 16.5 51.421875 16.5 36.375 
Q 16.5 21.390625 20.328125 13.890625 
Q 24.171875 6.390625 31.78125 6.390625 
Q 39.453125 6.390625 43.28125 13.890625 
Q 47.125 21.390625 47.125 36.375 
Q 47.125 51.421875 43.28125 58.90625 
Q 39.453125 66.40625 31.78125 66.40625 
z
M 31.78125 74.21875 
Q 44.046875 74.21875 50.515625 64.515625 
Q 56.984375 54.828125 56.984375 36.375 
Q 56.984375 17.96875 50.515625 8.265625 
Q 44.046875 -1.421875 31.78125 -1.421875 
Q 19.53125 -1.421875 13.0625 8.265625 
Q 6.59375 17.96875 6.59375 36.375 
Q 6.59375 54.828125 13.0625 64.515625 
Q 19.53125 74.21875 31.78125 74.21875 
z
" id="DejaVuSans-48"/>
       <path d="M 10.6875 12.40625 
L 21 12.40625 
L 21 0 
L 10.6875 0 
z
" id="DejaVuSans-46"/>
      </defs>
      <g transform="translate(79.485826 254.356562)scale(0.1 -0.1)">
       <use xlink:href="#DejaVuSans-48"/>
       <use x="63.623047" xlink:href="#DejaVuSans-46"/>
       <use x="95.410156" xlink:href="#DejaVuSans-48"/>
      </g>
     </g>
    </g>
    <g id="xtick_2">
     <g id="line2d_2">
      <g>
       <use style="stroke:#000000;stroke-width:0.8;" x="144.679125" xlink:href="#mce6ae89f48" y="239.758125"/>
      </g>
     </g>
     <g id="text_2">
      <!-- 0.2 -->
      <defs>
       <path d="M 19.1875 8.296875 
L 53.609375 8.296875 
L 53.609375 0 
L 7.328125 0 
L 7.328125 8.296875 
Q 12.9375 14.109375 22.625 23.890625 
Q 32.328125 33.6875 34.8125 36.53125 
Q 39.546875 41.84375 41.421875 45.53125 
Q 43.3125 49.21875 43.3125 52.78125 
Q 43.3125 58.59375 39.234375 62.25 
Q 35.15625 65.921875 28.609375 65.921875 
Q 23.96875 65.921875 18.8125 64.3125 
Q 13.671875 62.703125 7.8125 59.421875 
L 7.8125 69.390625 
Q 13.765625 71.78125 18.9375 73 
Q 24.125 74.21875 28.421875 74.21875 
Q 39.75 74.21875 46.484375 68.546875 
Q 53.21875 62.890625 53.21875 53.421875 
Q 53.21875 48.921875 51.53125 44.890625 
Q 49.859375 40.875 45.40625 35.40625 
Q 44.1875 33.984375 37.640625 27.21875 
Q 31.109375 20.453125 19.1875 8.296875 
z
" id="DejaVuSans-50"/>
      </defs>
      <g transform="translate(136.727562 254.356562)scale(0.1 -0.1)">
       <use xlink:href="#DejaVuSans-48"/>
       <use x="63.623047" xlink:href="#DejaVuSans-46"/>
       <use x="95.410156" xlink:href="#DejaVuSans-50"/>
      </g>
     </g>
    </g>
    <g id="xtick_3">
     <g id="line2d_3">
      <g>
       <use style="stroke:#000000;stroke-width:0.8;" x="201.92086" xlink:href="#mce6ae89f48" y="239.758125"/>
      </g>
     </g>
     <g id="text_3">
      <!-- 0.4 -->
      <defs>
       <path d="M 37.796875 64.3125 
L 12.890625 25.390625 
L 37.796875 25.390625 
z
M 35.203125 72.90625 
L 47.609375 72.90625 
L 47.609375 25.390625 
L 58.015625 25.390625 
L 58.015625 17.1875 
L 47.609375 17.1875 
L 47.609375 0 
L 37.796875 0 
L 37.796875 17.1875 
L 4.890625 17.1875 
L 4.890625 26.703125 
z
" id="DejaVuSans-52"/>
      </defs>
      <g transform="translate(193.969298 254.356562)scale(0.1 -0.1)">
       <use xlink:href="#DejaVuSans-48"/>
       <use x="63.623047" xlink:href="#DejaVuSans-46"/>
       <use x="95.410156" xlink:href="#DejaVuSans-52"/>
      </g>
     </g>
    </g>
    <g id="xtick_4">
     <g id="line2d_4">
      <g>
       <use style="stroke:#000000;stroke-width:0.8;" x="259.162596" xlink:href="#mce6ae89f48" y="239.758125"/>
      </g>
     </g>
     <g id="text_4">
      <!-- 0.6 -->
      <defs>
       <path d="M 33.015625 40.375 
Q 26.375 40.375 22.484375 35.828125 
Q 18.609375 31.296875 18.609375 23.390625 
Q 18.609375 15.53125 22.484375 10.953125 
Q 26.375 6.390625 33.015625 6.390625 
Q 39.65625 6.390625 43.53125 10.953125 
Q 47.40625 15.53125 47.40625 23.390625 
Q 47.40625 31.296875 43.53125 35.828125 
Q 39.65625 40.375 33.015625 40.375 
z
M 52.59375 71.296875 
L 52.59375 62.3125 
Q 48.875 64.0625 45.09375 64.984375 
Q 41.3125 65.921875 37.59375 65.921875 
Q 27.828125 65.921875 22.671875 59.328125 
Q 17.53125 52.734375 16.796875 39.40625 
Q 19.671875 43.65625 24.015625 45.921875 
Q 28.375 48.1875 33.59375 48.1875 
Q 44.578125 48.1875 50.953125 41.515625 
Q 57.328125 34.859375 57.328125 23.390625 
Q 57.328125 12.15625 50.6875 5.359375 
Q 44.046875 -1.421875 33.015625 -1.421875 
Q 20.359375 -1.421875 13.671875 8.265625 
Q 6.984375 17.96875 6.984375 36.375 
Q 6.984375 53.65625 15.1875 63.9375 
Q 23.390625 74.21875 37.203125 74.21875 
Q 40.921875 74.21875 44.703125 73.484375 
Q 48.484375 72.75 52.59375 71.296875 
z
" id="DejaVuSans-54"/>
      </defs>
      <g transform="translate(251.211034 254.356562)scale(0.1 -0.1)">
       <use xlink:href="#DejaVuSans-48"/>
       <use x="63.623047" xlink:href="#DejaVuSans-46"/>
       <use x="95.410156" xlink:href="#DejaVuSans-54"/>
      </g>
     </g>
    </g>
    <g id="xtick_5">
     <g id="line2d_5">
      <g>
       <use style="stroke:#000000;stroke-width:0.8;" x="316.404332" xlink:href="#mce6ae89f48" y="239.758125"/>
      </g>
     </g>
     <g id="text_5">
      <!-- 0.8 -->
      <defs>
       <path d="M 31.78125 34.625 
Q 24.75 34.625 20.71875 30.859375 
Q 16.703125 27.09375 16.703125 20.515625 
Q 16.703125 13.921875 20.71875 10.15625 
Q 24.75 6.390625 31.78125 6.390625 
Q 38.8125 6.390625 42.859375 10.171875 
Q 46.921875 13.96875 46.921875 20.515625 
Q 46.921875 27.09375 42.890625 30.859375 
Q 38.875 34.625 31.78125 34.625 
z
M 21.921875 38.8125 
Q 15.578125 40.375 12.03125 44.71875 
Q 8.5 49.078125 8.5 55.328125 
Q 8.5 64.0625 14.71875 69.140625 
Q 20.953125 74.21875 31.78125 74.21875 
Q 42.671875 74.21875 48.875 69.140625 
Q 55.078125 64.0625 55.078125 55.328125 
Q 55.078125 49.078125 51.53125 44.71875 
Q 48 40.375 41.703125 38.8125 
Q 48.828125 37.15625 52.796875 32.3125 
Q 56.78125 27.484375 56.78125 20.515625 
Q 56.78125 9.90625 50.3125 4.234375 
Q 43.84375 -1.421875 31.78125 -1.421875 
Q 19.734375 -1.421875 13.25 4.234375 
Q 6.78125 9.90625 6.78125 20.515625 
Q 6.78125 27.484375 10.78125 32.3125 
Q 14.796875 37.15625 21.921875 38.8125 
z
M 18.3125 54.390625 
Q 18.3125 48.734375 21.84375 45.5625 
Q 25.390625 42.390625 31.78125 42.390625 
Q 38.140625 42.390625 41.71875 45.5625 
Q 45.3125 48.734375 45.3125 54.390625 
Q 45.3125 60.0625 41.71875 63.234375 
Q 38.140625 66.40625 31.78125 66.40625 
Q 25.390625 66.40625 21.84375 63.234375 
Q 18.3125 60.0625 18.3125 54.390625 
z
" id="DejaVuSans-56"/>
      </defs>
      <g transform="translate(308.45277 254.356562)scale(0.1 -0.1)">
       <use xlink:href="#DejaVuSans-48"/>
       <use x="63.623047" xlink:href="#DejaVuSans-46"/>
       <use x="95.410156" xlink:href="#DejaVuSans-56"/>
      </g>
     </g>
    </g>
    <g id="xtick_6">
     <g id="line2d_6">
      <g>
       <use style="stroke:#000000;stroke-width:0.8;" x="373.646068" xlink:href="#mce6ae89f48" y="239.758125"/>
      </g>
     </g>
     <g id="text_6">
      <!-- 1.0 -->
      <defs>
       <path d="M 12.40625 8.296875 
L 28.515625 8.296875 
L 28.515625 63.921875 
L 10.984375 60.40625 
L 10.984375 69.390625 
L 28.421875 72.90625 
L 38.28125 72.90625 
L 38.28125 8.296875 
L 54.390625 8.296875 
L 54.390625 0 
L 12.40625 0 
z
" id="DejaVuSans-49"/>
      </defs>
      <g transform="translate(365.694505 254.356562)scale(0.1 -0.1)">
       <use xlink:href="#DejaVuSans-49"/>
       <use x="63.623047" xlink:href="#DejaVuSans-46"/>
       <use x="95.410156" xlink:href="#DejaVuSans-48"/>
      </g>
     </g>
    </g>
    <g id="text_7">
     <!-- Principal Component 1 -->
     <defs>
      <path d="M 19.671875 64.796875 
L 19.671875 37.40625 
L 32.078125 37.40625 
Q 38.96875 37.40625 42.71875 40.96875 
Q 46.484375 44.53125 46.484375 51.125 
Q 46.484375 57.671875 42.71875 61.234375 
Q 38.96875 64.796875 32.078125 64.796875 
z
M 9.8125 72.90625 
L 32.078125 72.90625 
Q 44.34375 72.90625 50.609375 67.359375 
Q 56.890625 61.8125 56.890625 51.125 
Q 56.890625 40.328125 50.609375 34.8125 
Q 44.34375 29.296875 32.078125 29.296875 
L 19.671875 29.296875 
L 19.671875 0 
L 9.8125 0 
z
" id="DejaVuSans-80"/>
      <path d="M 41.109375 46.296875 
Q 39.59375 47.171875 37.8125 47.578125 
Q 36.03125 48 33.890625 48 
Q 26.265625 48 22.1875 43.046875 
Q 18.109375 38.09375 18.109375 28.8125 
L 18.109375 0 
L 9.078125 0 
L 9.078125 54.6875 
L 18.109375 54.6875 
L 18.109375 46.1875 
Q 20.953125 51.171875 25.484375 53.578125 
Q 30.03125 56 36.53125 56 
Q 37.453125 56 38.578125 55.875 
Q 39.703125 55.765625 41.0625 55.515625 
z
" id="DejaVuSans-114"/>
      <path d="M 9.421875 54.6875 
L 18.40625 54.6875 
L 18.40625 0 
L 9.421875 0 
z
M 9.421875 75.984375 
L 18.40625 75.984375 
L 18.40625 64.59375 
L 9.421875 64.59375 
z
" id="DejaVuSans-105"/>
      <path d="M 54.890625 33.015625 
L 54.890625 0 
L 45.90625 0 
L 45.90625 32.71875 
Q 45.90625 40.484375 42.875 44.328125 
Q 39.84375 48.1875 33.796875 48.1875 
Q 26.515625 48.1875 22.3125 43.546875 
Q 18.109375 38.921875 18.109375 30.90625 
L 18.109375 0 
L 9.078125 0 
L 9.078125 54.6875 
L 18.109375 54.6875 
L 18.109375 46.1875 
Q 21.34375 51.125 25.703125 53.5625 
Q 30.078125 56 35.796875 56 
Q 45.21875 56 50.046875 50.171875 
Q 54.890625 44.34375 54.890625 33.015625 
z
" id="DejaVuSans-110"/>
      <path d="M 48.78125 52.59375 
L 48.78125 44.1875 
Q 44.96875 46.296875 41.140625 47.34375 
Q 37.3125 48.390625 33.40625 48.390625 
Q 24.65625 48.390625 19.8125 42.84375 
Q 14.984375 37.3125 14.984375 27.296875 
Q 14.984375 17.28125 19.8125 11.734375 
Q 24.65625 6.203125 33.40625 6.203125 
Q 37.3125 6.203125 41.140625 7.25 
Q 44.96875 8.296875 48.78125 10.40625 
L 48.78125 2.09375 
Q 45.015625 0.34375 40.984375 -0.53125 
Q 36.96875 -1.421875 32.421875 -1.421875 
Q 20.0625 -1.421875 12.78125 6.34375 
Q 5.515625 14.109375 5.515625 27.296875 
Q 5.515625 40.671875 12.859375 48.328125 
Q 20.21875 56 33.015625 56 
Q 37.15625 56 41.109375 55.140625 
Q 45.0625 54.296875 48.78125 52.59375 
z
" id="DejaVuSans-99"/>
      <path d="M 18.109375 8.203125 
L 18.109375 -20.796875 
L 9.078125 -20.796875 
L 9.078125 54.6875 
L 18.109375 54.6875 
L 18.109375 46.390625 
Q 20.953125 51.265625 25.265625 53.625 
Q 29.59375 56 35.59375 56 
Q 45.5625 56 51.78125 48.09375 
Q 58.015625 40.1875 58.015625 27.296875 
Q 58.015625 14.40625 51.78125 6.484375 
Q 45.5625 -1.421875 35.59375 -1.421875 
Q 29.59375 -1.421875 25.265625 0.953125 
Q 20.953125 3.328125 18.109375 8.203125 
z
M 48.6875 27.296875 
Q 48.6875 37.203125 44.609375 42.84375 
Q 40.53125 48.484375 33.40625 48.484375 
Q 26.265625 48.484375 22.1875 42.84375 
Q 18.109375 37.203125 18.109375 27.296875 
Q 18.109375 17.390625 22.1875 11.75 
Q 26.265625 6.109375 33.40625 6.109375 
Q 40.53125 6.109375 44.609375 11.75 
Q 48.6875 17.390625 48.6875 27.296875 
z
" id="DejaVuSans-112"/>
      <path d="M 34.28125 27.484375 
Q 23.390625 27.484375 19.1875 25 
Q 14.984375 22.515625 14.984375 16.5 
Q 14.984375 11.71875 18.140625 8.90625 
Q 21.296875 6.109375 26.703125 6.109375 
Q 34.1875 6.109375 38.703125 11.40625 
Q 43.21875 16.703125 43.21875 25.484375 
L 43.21875 27.484375 
z
M 52.203125 31.203125 
L 52.203125 0 
L 43.21875 0 
L 43.21875 8.296875 
Q 40.140625 3.328125 35.546875 0.953125 
Q 30.953125 -1.421875 24.3125 -1.421875 
Q 15.921875 -1.421875 10.953125 3.296875 
Q 6 8.015625 6 15.921875 
Q 6 25.140625 12.171875 29.828125 
Q 18.359375 34.515625 30.609375 34.515625 
L 43.21875 34.515625 
L 43.21875 35.40625 
Q 43.21875 41.609375 39.140625 45 
Q 35.0625 48.390625 27.6875 48.390625 
Q 23 48.390625 18.546875 47.265625 
Q 14.109375 46.140625 10.015625 43.890625 
L 10.015625 52.203125 
Q 14.9375 54.109375 19.578125 55.046875 
Q 24.21875 56 28.609375 56 
Q 40.484375 56 46.34375 49.84375 
Q 52.203125 43.703125 52.203125 31.203125 
z
" id="DejaVuSans-97"/>
      <path d="M 9.421875 75.984375 
L 18.40625 75.984375 
L 18.40625 0 
L 9.421875 0 
z
" id="DejaVuSans-108"/>
      <path id="DejaVuSans-32"/>
      <path d="M 64.40625 67.28125 
L 64.40625 56.890625 
Q 59.421875 61.53125 53.78125 63.8125 
Q 48.140625 66.109375 41.796875 66.109375 
Q 29.296875 66.109375 22.65625 58.46875 
Q 16.015625 50.828125 16.015625 36.375 
Q 16.015625 21.96875 22.65625 14.328125 
Q 29.296875 6.6875 41.796875 6.6875 
Q 48.140625 6.6875 53.78125 8.984375 
Q 59.421875 11.28125 64.40625 15.921875 
L 64.40625 5.609375 
Q 59.234375 2.09375 53.4375 0.328125 
Q 47.65625 -1.421875 41.21875 -1.421875 
Q 24.65625 -1.421875 15.125 8.703125 
Q 5.609375 18.84375 5.609375 36.375 
Q 5.609375 53.953125 15.125 64.078125 
Q 24.65625 74.21875 41.21875 74.21875 
Q 47.75 74.21875 53.53125 72.484375 
Q 59.328125 70.75 64.40625 67.28125 
z
" id="DejaVuSans-67"/>
      <path d="M 30.609375 48.390625 
Q 23.390625 48.390625 19.1875 42.75 
Q 14.984375 37.109375 14.984375 27.296875 
Q 14.984375 17.484375 19.15625 11.84375 
Q 23.34375 6.203125 30.609375 6.203125 
Q 37.796875 6.203125 41.984375 11.859375 
Q 46.1875 17.53125 46.1875 27.296875 
Q 46.1875 37.015625 41.984375 42.703125 
Q 37.796875 48.390625 30.609375 48.390625 
z
M 30.609375 56 
Q 42.328125 56 49.015625 48.375 
Q 55.71875 40.765625 55.71875 27.296875 
Q 55.71875 13.875 49.015625 6.21875 
Q 42.328125 -1.421875 30.609375 -1.421875 
Q 18.84375 -1.421875 12.171875 6.21875 
Q 5.515625 13.875 5.515625 27.296875 
Q 5.515625 40.765625 12.171875 48.375 
Q 18.84375 56 30.609375 56 
z
" id="DejaVuSans-111"/>
      <path d="M 52 44.1875 
Q 55.375 50.25 60.0625 53.125 
Q 64.75 56 71.09375 56 
Q 79.640625 56 84.28125 50.015625 
Q 88.921875 44.046875 88.921875 33.015625 
L 88.921875 0 
L 79.890625 0 
L 79.890625 32.71875 
Q 79.890625 40.578125 77.09375 44.375 
Q 74.3125 48.1875 68.609375 48.1875 
Q 61.625 48.1875 57.5625 43.546875 
Q 53.515625 38.921875 53.515625 30.90625 
L 53.515625 0 
L 44.484375 0 
L 44.484375 32.71875 
Q 44.484375 40.625 41.703125 44.40625 
Q 38.921875 48.1875 33.109375 48.1875 
Q 26.21875 48.1875 22.15625 43.53125 
Q 18.109375 38.875 18.109375 30.90625 
L 18.109375 0 
L 9.078125 0 
L 9.078125 54.6875 
L 18.109375 54.6875 
L 18.109375 46.1875 
Q 21.1875 51.21875 25.484375 53.609375 
Q 29.78125 56 35.6875 56 
Q 41.65625 56 45.828125 52.96875 
Q 50 49.953125 52 44.1875 
z
" id="DejaVuSans-109"/>
      <path d="M 56.203125 29.59375 
L 56.203125 25.203125 
L 14.890625 25.203125 
Q 15.484375 15.921875 20.484375 11.0625 
Q 25.484375 6.203125 34.421875 6.203125 
Q 39.59375 6.203125 44.453125 7.46875 
Q 49.3125 8.734375 54.109375 11.28125 
L 54.109375 2.78125 
Q 49.265625 0.734375 44.1875 -0.34375 
Q 39.109375 -1.421875 33.890625 -1.421875 
Q 20.796875 -1.421875 13.15625 6.1875 
Q 5.515625 13.8125 5.515625 26.8125 
Q 5.515625 40.234375 12.765625 48.109375 
Q 20.015625 56 32.328125 56 
Q 43.359375 56 49.78125 48.890625 
Q 56.203125 41.796875 56.203125 29.59375 
z
M 47.21875 32.234375 
Q 47.125 39.59375 43.09375 43.984375 
Q 39.0625 48.390625 32.421875 48.390625 
Q 24.90625 48.390625 20.390625 44.140625 
Q 15.875 39.890625 15.1875 32.171875 
z
" id="DejaVuSans-101"/>
      <path d="M 18.3125 70.21875 
L 18.3125 54.6875 
L 36.8125 54.6875 
L 36.8125 47.703125 
L 18.3125 47.703125 
L 18.3125 18.015625 
Q 18.3125 11.328125 20.140625 9.421875 
Q 21.96875 7.515625 27.59375 7.515625 
L 36.8125 7.515625 
L 36.8125 0 
L 27.59375 0 
Q 17.1875 0 13.234375 3.875 
Q 9.28125 7.765625 9.28125 18.015625 
L 9.28125 47.703125 
L 2.6875 47.703125 
L 2.6875 54.6875 
L 9.28125 54.6875 
L 9.28125 70.21875 
z
" id="DejaVuSans-116"/>
     </defs>
     <g transform="translate(162.779688 268.034687)scale(0.1 -0.1)">
      <use xlink:href="#DejaVuSans-80"/>
      <use x="60.287109" xlink:href="#DejaVuSans-114"/>
      <use x="101.400391" xlink:href="#DejaVuSans-105"/>
      <use x="129.183594" xlink:href="#DejaVuSans-110"/>
      <use x="192.5625" xlink:href="#DejaVuSans-99"/>
      <use x="247.542969" xlink:href="#DejaVuSans-105"/>
      <use x="275.326172" xlink:href="#DejaVuSans-112"/>
      <use x="338.802734" xlink:href="#DejaVuSans-97"/>
      <use x="400.082031" xlink:href="#DejaVuSans-108"/>
      <use x="427.865234" xlink:href="#DejaVuSans-32"/>
      <use x="459.652344" xlink:href="#DejaVuSans-67"/>
      <use x="529.476562" xlink:href="#DejaVuSans-111"/>
      <use x="590.658203" xlink:href="#DejaVuSans-109"/>
      <use x="688.070312" xlink:href="#DejaVuSans-112"/>
      <use x="751.546875" xlink:href="#DejaVuSans-111"/>
      <use x="812.728516" xlink:href="#DejaVuSans-110"/>
      <use x="876.107422" xlink:href="#DejaVuSans-101"/>
      <use x="937.630859" xlink:href="#DejaVuSans-110"/>
      <use x="1001.009766" xlink:href="#DejaVuSans-116"/>
      <use x="1040.21875" xlink:href="#DejaVuSans-32"/>
      <use x="1072.005859" xlink:href="#DejaVuSans-49"/>
     </g>
    </g>
   </g>
   <g id="matplotlib.axis_2">
    <g id="ytick_1">
     <g id="line2d_7">
      <defs>
       <path d="M 0 0 
L -3.5 0 
" id="mbbeb5f618c" style="stroke:#000000;stroke-width:0.8;"/>
      </defs>
      <g>
       <use style="stroke:#000000;stroke-width:0.8;" x="52.160938" xlink:href="#mbbeb5f618c" y="229.961788"/>
      </g>
     </g>
     <g id="text_8">
      <!-- 0.5 -->
      <defs>
       <path d="M 10.59375 35.5 
L 73.1875 35.5 
L 73.1875 27.203125 
L 10.59375 27.203125 
z
" id="DejaVuSans-8722"/>
       <path d="M 10.796875 72.90625 
L 49.515625 72.90625 
L 49.515625 64.59375 
L 19.828125 64.59375 
L 19.828125 46.734375 
Q 21.96875 47.46875 24.109375 47.828125 
Q 26.265625 48.1875 28.421875 48.1875 
Q 40.625 48.1875 47.75 41.5 
Q 54.890625 34.8125 54.890625 23.390625 
Q 54.890625 11.625 47.5625 5.09375 
Q 40.234375 -1.421875 26.90625 -1.421875 
Q 22.3125 -1.421875 17.546875 -0.640625 
Q 12.796875 0.140625 7.71875 1.703125 
L 7.71875 11.625 
Q 12.109375 9.234375 16.796875 8.0625 
Q 21.484375 6.890625 26.703125 6.890625 
Q 35.15625 6.890625 40.078125 11.328125 
Q 45.015625 15.765625 45.015625 23.390625 
Q 45.015625 31 40.078125 35.4375 
Q 35.15625 39.890625 26.703125 39.890625 
Q 22.75 39.890625 18.8125 39.015625 
Q 14.890625 38.140625 10.796875 36.28125 
z
" id="DejaVuSans-53"/>
      </defs>
      <g transform="translate(20.878125 233.761007)scale(0.1 -0.1)">
       <use xlink:href="#DejaVuSans-8722"/>
       <use x="83.789062" xlink:href="#DejaVuSans-48"/>
       <use x="147.412109" xlink:href="#DejaVuSans-46"/>
       <use x="179.199219" xlink:href="#DejaVuSans-53"/>
      </g>
     </g>
    </g>
    <g id="ytick_2">
     <g id="line2d_8">
      <g>
       <use style="stroke:#000000;stroke-width:0.8;" x="52.160938" xlink:href="#mbbeb5f618c" y="190.153222"/>
      </g>
     </g>
     <g id="text_9">
      <!-- 0.0 -->
      <g transform="translate(29.257813 193.952441)scale(0.1 -0.1)">
       <use xlink:href="#DejaVuSans-48"/>
       <use x="63.623047" xlink:href="#DejaVuSans-46"/>
       <use x="95.410156" xlink:href="#DejaVuSans-48"/>
      </g>
     </g>
    </g>
    <g id="ytick_3">
     <g id="line2d_9">
      <g>
       <use style="stroke:#000000;stroke-width:0.8;" x="52.160938" xlink:href="#mbbeb5f618c" y="150.344655"/>
      </g>
     </g>
     <g id="text_10">
      <!-- 0.5 -->
      <g transform="translate(29.257813 154.143874)scale(0.1 -0.1)">
       <use xlink:href="#DejaVuSans-48"/>
       <use x="63.623047" xlink:href="#DejaVuSans-46"/>
       <use x="95.410156" xlink:href="#DejaVuSans-53"/>
      </g>
     </g>
    </g>
    <g id="ytick_4">
     <g id="line2d_10">
      <g>
       <use style="stroke:#000000;stroke-width:0.8;" x="52.160938" xlink:href="#mbbeb5f618c" y="110.536089"/>
      </g>
     </g>
     <g id="text_11">
      <!-- 1.0 -->
      <g transform="translate(29.257813 114.335308)scale(0.1 -0.1)">
       <use xlink:href="#DejaVuSans-49"/>
       <use x="63.623047" xlink:href="#DejaVuSans-46"/>
       <use x="95.410156" xlink:href="#DejaVuSans-48"/>
      </g>
     </g>
    </g>
    <g id="ytick_5">
     <g id="line2d_11">
      <g>
       <use style="stroke:#000000;stroke-width:0.8;" x="52.160938" xlink:href="#mbbeb5f618c" y="70.727523"/>
      </g>
     </g>
     <g id="text_12">
      <!-- 1.5 -->
      <g transform="translate(29.257813 74.526741)scale(0.1 -0.1)">
       <use xlink:href="#DejaVuSans-49"/>
       <use x="63.623047" xlink:href="#DejaVuSans-46"/>
       <use x="95.410156" xlink:href="#DejaVuSans-53"/>
      </g>
     </g>
    </g>
    <g id="ytick_6">
     <g id="line2d_12">
      <g>
       <use style="stroke:#000000;stroke-width:0.8;" x="52.160938" xlink:href="#mbbeb5f618c" y="30.918956"/>
      </g>
     </g>
     <g id="text_13">
      <!-- 2.0 -->
      <g transform="translate(29.257813 34.718175)scale(0.1 -0.1)">
       <use xlink:href="#DejaVuSans-50"/>
       <use x="63.623047" xlink:href="#DejaVuSans-46"/>
       <use x="95.410156" xlink:href="#DejaVuSans-48"/>
      </g>
     </g>
    </g>
    <g id="text_14">
     <!-- Principal Compoenent 2 -->
     <g transform="translate(14.798438 190.895937)rotate(-90)scale(0.1 -0.1)">
      <use xlink:href="#DejaVuSans-80"/>
      <use x="60.287109" xlink:href="#DejaVuSans-114"/>
      <use x="101.400391" xlink:href="#DejaVuSans-105"/>
      <use x="129.183594" xlink:href="#DejaVuSans-110"/>
      <use x="192.5625" xlink:href="#DejaVuSans-99"/>
      <use x="247.542969" xlink:href="#DejaVuSans-105"/>
      <use x="275.326172" xlink:href="#DejaVuSans-112"/>
      <use x="338.802734" xlink:href="#DejaVuSans-97"/>
      <use x="400.082031" xlink:href="#DejaVuSans-108"/>
      <use x="427.865234" xlink:href="#DejaVuSans-32"/>
      <use x="459.652344" xlink:href="#DejaVuSans-67"/>
      <use x="529.476562" xlink:href="#DejaVuSans-111"/>
      <use x="590.658203" xlink:href="#DejaVuSans-109"/>
      <use x="688.070312" xlink:href="#DejaVuSans-112"/>
      <use x="751.546875" xlink:href="#DejaVuSans-111"/>
      <use x="812.728516" xlink:href="#DejaVuSans-101"/>
      <use x="874.251953" xlink:href="#DejaVuSans-110"/>
      <use x="937.630859" xlink:href="#DejaVuSans-101"/>
      <use x="999.154297" xlink:href="#DejaVuSans-110"/>
      <use x="1062.533203" xlink:href="#DejaVuSans-116"/>
      <use x="1101.742188" xlink:href="#DejaVuSans-32"/>
      <use x="1133.529297" xlink:href="#DejaVuSans-50"/>
     </g>
    </g>
   </g>
   <g id="patch_3">
    <path d="M 52.160938 239.758125 
L 52.160938 22.318125 
" style="fill:none;stroke:#000000;stroke-linecap:square;stroke-linejoin:miter;stroke-width:0.8;"/>
   </g>
   <g id="patch_4">
    <path d="M 386.960938 239.758125 
L 386.960938 22.318125 
" style="fill:none;stroke:#000000;stroke-linecap:square;stroke-linejoin:miter;stroke-width:0.8;"/>
   </g>
   <g id="patch_5">
    <path d="M 52.160937 239.758125 
L 386.960938 239.758125 
" style="fill:none;stroke:#000000;stroke-linecap:square;stroke-linejoin:miter;stroke-width:0.8;"/>
   </g>
   <g id="patch_6">
    <path d="M 52.160937 22.318125 
L 386.960938 22.318125 
" style="fill:none;stroke:#000000;stroke-linecap:square;stroke-linejoin:miter;stroke-width:0.8;"/>
   </g>
   <g id="text_15">
    <!-- DBSCAN: Clost to El -->
    <defs>
     <path d="M 19.671875 64.796875 
L 19.671875 8.109375 
L 31.59375 8.109375 
Q 46.6875 8.109375 53.6875 14.9375 
Q 60.6875 21.78125 60.6875 36.53125 
Q 60.6875 51.171875 53.6875 57.984375 
Q 46.6875 64.796875 31.59375 64.796875 
z
M 9.8125 72.90625 
L 30.078125 72.90625 
Q 51.265625 72.90625 61.171875 64.09375 
Q 71.09375 55.28125 71.09375 36.53125 
Q 71.09375 17.671875 61.125 8.828125 
Q 51.171875 0 30.078125 0 
L 9.8125 0 
z
" id="DejaVuSans-68"/>
     <path d="M 19.671875 34.8125 
L 19.671875 8.109375 
L 35.5 8.109375 
Q 43.453125 8.109375 47.28125 11.40625 
Q 51.125 14.703125 51.125 21.484375 
Q 51.125 28.328125 47.28125 31.5625 
Q 43.453125 34.8125 35.5 34.8125 
z
M 19.671875 64.796875 
L 19.671875 42.828125 
L 34.28125 42.828125 
Q 41.5 42.828125 45.03125 45.53125 
Q 48.578125 48.25 48.578125 53.8125 
Q 48.578125 59.328125 45.03125 62.0625 
Q 41.5 64.796875 34.28125 64.796875 
z
M 9.8125 72.90625 
L 35.015625 72.90625 
Q 46.296875 72.90625 52.390625 68.21875 
Q 58.5 63.53125 58.5 54.890625 
Q 58.5 48.1875 55.375 44.234375 
Q 52.25 40.28125 46.1875 39.3125 
Q 53.46875 37.75 57.5 32.78125 
Q 61.53125 27.828125 61.53125 20.40625 
Q 61.53125 10.640625 54.890625 5.3125 
Q 48.25 0 35.984375 0 
L 9.8125 0 
z
" id="DejaVuSans-66"/>
     <path d="M 53.515625 70.515625 
L 53.515625 60.890625 
Q 47.90625 63.578125 42.921875 64.890625 
Q 37.9375 66.21875 33.296875 66.21875 
Q 25.25 66.21875 20.875 63.09375 
Q 16.5 59.96875 16.5 54.203125 
Q 16.5 49.359375 19.40625 46.890625 
Q 22.3125 44.4375 30.421875 42.921875 
L 36.375 41.703125 
Q 47.40625 39.59375 52.65625 34.296875 
Q 57.90625 29 57.90625 20.125 
Q 57.90625 9.515625 50.796875 4.046875 
Q 43.703125 -1.421875 29.984375 -1.421875 
Q 24.8125 -1.421875 18.96875 -0.25 
Q 13.140625 0.921875 6.890625 3.21875 
L 6.890625 13.375 
Q 12.890625 10.015625 18.65625 8.296875 
Q 24.421875 6.59375 29.984375 6.59375 
Q 38.421875 6.59375 43.015625 9.90625 
Q 47.609375 13.234375 47.609375 19.390625 
Q 47.609375 24.75 44.3125 27.78125 
Q 41.015625 30.8125 33.5 32.328125 
L 27.484375 33.5 
Q 16.453125 35.6875 11.515625 40.375 
Q 6.59375 45.0625 6.59375 53.421875 
Q 6.59375 63.09375 13.40625 68.65625 
Q 20.21875 74.21875 32.171875 74.21875 
Q 37.3125 74.21875 42.625 73.28125 
Q 47.953125 72.359375 53.515625 70.515625 
z
" id="DejaVuSans-83"/>
     <path d="M 34.1875 63.1875 
L 20.796875 26.90625 
L 47.609375 26.90625 
z
M 28.609375 72.90625 
L 39.796875 72.90625 
L 67.578125 0 
L 57.328125 0 
L 50.6875 18.703125 
L 17.828125 18.703125 
L 11.1875 0 
L 0.78125 0 
z
" id="DejaVuSans-65"/>
     <path d="M 9.8125 72.90625 
L 23.09375 72.90625 
L 55.421875 11.921875 
L 55.421875 72.90625 
L 64.984375 72.90625 
L 64.984375 0 
L 51.703125 0 
L 19.390625 60.984375 
L 19.390625 0 
L 9.8125 0 
z
" id="DejaVuSans-78"/>
     <path d="M 11.71875 12.40625 
L 22.015625 12.40625 
L 22.015625 0 
L 11.71875 0 
z
M 11.71875 51.703125 
L 22.015625 51.703125 
L 22.015625 39.3125 
L 11.71875 39.3125 
z
" id="DejaVuSans-58"/>
     <path d="M 44.28125 53.078125 
L 44.28125 44.578125 
Q 40.484375 46.53125 36.375 47.5 
Q 32.28125 48.484375 27.875 48.484375 
Q 21.1875 48.484375 17.84375 46.4375 
Q 14.5 44.390625 14.5 40.28125 
Q 14.5 37.15625 16.890625 35.375 
Q 19.28125 33.59375 26.515625 31.984375 
L 29.59375 31.296875 
Q 39.15625 29.25 43.1875 25.515625 
Q 47.21875 21.78125 47.21875 15.09375 
Q 47.21875 7.46875 41.1875 3.015625 
Q 35.15625 -1.421875 24.609375 -1.421875 
Q 20.21875 -1.421875 15.453125 -0.5625 
Q 10.6875 0.296875 5.421875 2 
L 5.421875 11.28125 
Q 10.40625 8.6875 15.234375 7.390625 
Q 20.0625 6.109375 24.8125 6.109375 
Q 31.15625 6.109375 34.5625 8.28125 
Q 37.984375 10.453125 37.984375 14.40625 
Q 37.984375 18.0625 35.515625 20.015625 
Q 33.0625 21.96875 24.703125 23.78125 
L 21.578125 24.515625 
Q 13.234375 26.265625 9.515625 29.90625 
Q 5.8125 33.546875 5.8125 39.890625 
Q 5.8125 47.609375 11.28125 51.796875 
Q 16.75 56 26.8125 56 
Q 31.78125 56 36.171875 55.265625 
Q 40.578125 54.546875 44.28125 53.078125 
z
" id="DejaVuSans-115"/>
     <path d="M 9.8125 72.90625 
L 55.90625 72.90625 
L 55.90625 64.59375 
L 19.671875 64.59375 
L 19.671875 43.015625 
L 54.390625 43.015625 
L 54.390625 34.71875 
L 19.671875 34.71875 
L 19.671875 8.296875 
L 56.78125 8.296875 
L 56.78125 0 
L 9.8125 0 
z
" id="DejaVuSans-69"/>
    </defs>
    <g transform="translate(160.004375 16.318125)scale(0.12 -0.12)">
     <use xlink:href="#DejaVuSans-68"/>
     <use x="77.001953" xlink:href="#DejaVuSans-66"/>
     <use x="145.589844" xlink:href="#DejaVuSans-83"/>
     <use x="209.066406" xlink:href="#DejaVuSans-67"/>
     <use x="278.890625" xlink:href="#DejaVuSans-65"/>
     <use x="347.298828" xlink:href="#DejaVuSans-78"/>
     <use x="422.103516" xlink:href="#DejaVuSans-58"/>
     <use x="455.794922" xlink:href="#DejaVuSans-32"/>
     <use x="487.582031" xlink:href="#DejaVuSans-67"/>
     <use x="557.40625" xlink:href="#DejaVuSans-108"/>
     <use x="585.189453" xlink:href="#DejaVuSans-111"/>
     <use x="646.371094" xlink:href="#DejaVuSans-115"/>
     <use x="698.470703" xlink:href="#DejaVuSans-116"/>
     <use x="737.679688" xlink:href="#DejaVuSans-32"/>
     <use x="769.466797" xlink:href="#DejaVuSans-116"/>
     <use x="808.675781" xlink:href="#DejaVuSans-111"/>
     <use x="869.857422" xlink:href="#DejaVuSans-32"/>
     <use x="901.644531" xlink:href="#DejaVuSans-69"/>
     <use x="964.828125" xlink:href="#DejaVuSans-108"/>
    </g>
   </g>
  </g>
 </g>
 <defs>
  <clipPath id="p00eeb17d6d">
   <rect height="217.44" width="334.8" x="52.160938" y="22.318125"/>
  </clipPath>
 </defs>
</svg>
